<svg width="378" height="80" viewBox="0 0 378 80" fill="none" xmlns="http://www.w3.org/2000/svg">
<g clip-path="url(#clip0_97_35)">
<path d="M25.452 32.4211H56.762V79.1841H39.693C16.362 79.1841 0 61.7111 0 38.9861C0 16.1601 16.059 0.404053 39.693 0.404053H51.207V14.14H39.693C24.644 14.14 13.635 25.1491 13.635 40.0971C13.635 54.8431 24.24 65.4481 39.693 65.4481H43.834V46.0561H25.452V32.4211Z" fill="#110343"/>
<path d="M101.849 65.4481V79.1841H62.762V0.404053H101.243V14.14H76.498V32.4211H97.809V46.0561H76.498V65.4481H101.849Z" fill="#110343"/>
<path d="M159.662 74.841L121.08 24.139V78.78H107.849V6.868C107.849 2.727 110.172 0 114.515 0C117.242 0 119.464 0.909001 121.888 4.04L160.369 54.641V0H173.499V72.013C173.499 77.063 171.782 79.588 168.348 79.588C165.015 79.588 162.793 78.073 159.662 74.841Z" fill="#110343"/>
<path d="M218.586 65.4481V79.1841H179.499V0.404053H217.98V14.14H193.235V32.4211H214.546V46.0561H193.235V65.4481H218.586Z" fill="#110343"/>
<path d="M274.682 75.3965L224.586 0.151489H240.847L274.682 53.3785V0.151489H288.317V72.6695C288.317 76.8105 286.095 79.4365 282.56 79.4365C279.429 79.4365 276.601 78.3255 274.682 75.3965Z" fill="#008079"/>
<path d="M308.053 79.1841H294.317V0.404053H308.053V79.1841Z" fill="#008079"/>
<path d="M327.688 75.3965L377.784 0.151489H361.523L327.688 53.3785V0.151489H314.053V72.6695C314.053 76.8105 316.275 79.4365 319.81 79.4365C322.941 79.4365 325.769 78.3255 327.688 75.3965Z" fill="#008079"/>
</g>
<defs>
<clipPath id="clip0_97_35">
<rect width="377.784" height="79.588" fill="white"/>
</clipPath>
</defs>
</svg>
