<svg width="256" height="48" viewBox="0 0 256 48" fill="none" xmlns="http://www.w3.org/2000/svg">
<path d="M4.78846 47.5127H0.707245V39.2284H4.78846C13.0727 39.2284 16.7276 35.269 16.7276 26.0711V0H25.0118V26.0711C25.0118 40.7513 18.0067 47.5127 4.78846 47.5127Z" fill="#FEFEFE"/>
<path d="M53.6616 39.2284V47.5127H30.088V0H53.2961V8.28426H38.3722V19.3096H51.225V27.533H38.3722V39.2284H53.6616Z" fill="#FEFEFE"/>
<path d="M89.9864 45.1371L66.7174 14.5584V47.5127H58.7377V4.14213C58.7377 1.64467 60.1387 0 62.758 0C64.4027 0 65.7428 0.548224 67.2047 2.43655L90.4128 32.9543V0H98.3316V43.4315C98.3316 46.4772 97.2961 48 95.225 48C93.2149 48 91.8748 47.0863 89.9864 45.1371Z" fill="#FEFEFE"/>
<path d="M126.981 39.2284V47.5127H103.408V0H126.616V8.28426H111.692V19.3096H124.545V27.533H111.692V39.2284H126.981Z" fill="#FEFEFE"/>
<path d="M161.31 45.5541L130.981 0H140.826L161.31 32.2242V0H169.565V43.9032C169.565 46.4102 168.22 48 166.079 48C164.184 48 162.472 47.3274 161.31 45.5541Z" fill="#09ACA2"/>
<path d="M182.976 47.6943H174.66V0H182.976V47.6943Z" fill="#09ACA2"/>
<path d="M196.327 45.5541L226.655 0H216.811L196.327 32.2242V0H188.072V43.9032C188.072 46.4102 189.417 48 191.557 48C193.453 48 195.165 47.3274 196.327 45.5541Z" fill="#09ACA2"/>
<path d="M255.414 39.3783V47.6943H231.751V0H255.048V8.31592H240.067V19.3834H252.969V27.6382H240.067V39.3783H255.414Z" fill="#09ACA2"/>
</svg>
