<svg width="255" height="48" viewBox="0 0 255 48" fill="none" xmlns="http://www.w3.org/2000/svg">
<path d="M4.08122 47.5127H0V39.2284H4.08122C12.3655 39.2284 16.0203 35.269 16.0203 26.0711V0H24.3046V26.0711C24.3046 40.7513 17.2995 47.5127 4.08122 47.5127Z" fill="#11053C"/>
<path d="M52.9543 39.2284V47.5127H29.3807V0H52.5888V8.28426H37.665V19.3096H50.5178V27.533H37.665V39.2284H52.9543Z" fill="#11053C"/>
<path d="M89.2792 45.1371L66.0102 14.5584V47.5127H58.0305V4.14213C58.0305 1.64467 59.4315 0 62.0508 0C63.6954 0 65.0355 0.548223 66.4975 2.43655L89.7056 32.9543V0H97.6244V43.4315C97.6244 46.4772 96.5888 48 94.5178 48C92.5076 48 91.1675 47.0863 89.2792 45.1371Z" fill="#11053C"/>
<path d="M126.274 39.2284V47.5127H102.701V0H125.909V8.28426H110.985V19.3096H123.838V27.533H110.985V39.2284H126.274Z" fill="#11053C"/>
<path d="M160.603 45.5541L130.274 0H140.119L160.603 32.2242V0H168.858V43.9032C168.858 46.4102 167.512 48 165.372 48C163.477 48 161.765 47.3274 160.603 45.5541Z" fill="#09ACA2"/>
<path d="M182.269 47.6943H173.953V0H182.269V47.6943Z" fill="#09ACA2"/>
<path d="M195.619 45.5541L225.948 0H216.103L195.619 32.2242V0H187.365V43.9032C187.365 46.4102 188.71 48 190.85 48C192.745 48 194.458 47.3274 195.619 45.5541Z" fill="#09ACA2"/>
<path d="M254.707 39.3783V47.6943H231.044V0H254.34V8.31592H239.359V19.3834H252.261V27.6382H239.359V39.3783H254.707Z" fill="#09ACA2"/>
</svg>
