<svg width="540" height="120" viewBox="0 0 540 120" fill="none" xmlns="http://www.w3.org/2000/svg">
<g clip-path="url(#clip0_81_489)">
<path d="M124.6 69.73C124.6 74.4233 123.757 78.75 122.07 82.71C120.383 86.5967 117.853 89.75 114.48 92.17C111.18 94.5167 107.073 95.69 102.16 95.69H95.12C94.7533 95.69 94.4967 95.7633 94.35 95.91C94.2767 96.0567 94.24 96.2767 94.24 96.57V118.79C94.24 119.597 93.7633 120 92.81 120H82.91C82.1033 120 81.7 119.597 81.7 118.79V47.18C81.7 46.3733 82.1033 45.97 82.91 45.97H100.95C109.31 45.97 115.323 47.9133 118.99 51.8C122.73 55.6133 124.6 61.59 124.6 69.73ZM94.24 85.46C94.24 86.12 94.4967 86.45 95.01 86.45H100.84C104.507 86.45 107.367 84.9833 109.42 82.05C111.473 79.1167 112.5 75.0467 112.5 69.84C112.427 64.34 111.363 60.4533 109.31 58.18C107.33 55.9067 104.433 54.77 100.62 54.77H95.01C94.7167 54.77 94.4967 54.8433 94.35 54.99C94.2767 55.0633 94.24 55.32 94.24 55.76V85.46ZM148.378 118.79C148.378 119.597 147.938 120 147.058 120H137.158C136.351 120 135.948 119.597 135.948 118.79V47.18C135.948 46.3733 136.351 45.97 137.158 45.97H147.058C147.938 45.97 148.378 46.3733 148.378 47.18V118.79ZM205.243 93.71C205.39 94.0033 205.646 94.15 206.013 94.15C206.38 94.15 206.563 93.93 206.563 93.49C206.71 91.1433 206.783 88.54 206.783 85.68C206.783 82.7467 206.746 79.6667 206.673 76.44C206.673 73.2133 206.6 69.9133 206.453 66.54C206.38 63.1667 206.233 59.8667 206.013 56.64C205.793 53.34 205.5 50.2233 205.133 47.29C205.06 46.41 205.28 45.97 205.793 45.97H215.803C216.243 45.97 216.61 46.08 216.903 46.3C217.27 46.52 217.49 46.8133 217.563 47.18C218.076 49.8933 218.48 53.1933 218.773 57.08C219.066 60.8933 219.25 65.0733 219.323 69.62C219.396 74.1667 219.396 78.8233 219.323 83.59C219.323 88.2833 219.213 92.8667 218.993 97.34C218.846 101.813 218.663 105.92 218.443 109.66C218.223 113.327 217.966 116.37 217.673 118.79C217.6 119.377 217.38 119.743 217.013 119.89C216.646 119.963 216.243 120 215.803 120H209.313C208.8 120 208.286 119.487 207.773 118.46L176.973 71.82C176.9 71.5267 176.716 71.38 176.423 71.38C176.13 71.38 175.983 71.5633 175.983 71.93C175.91 75.67 175.836 79.3733 175.763 83.04C175.763 86.6333 175.763 90.1533 175.763 93.6C175.836 96.9733 175.91 100.2 175.983 103.28C176.13 106.36 176.276 109.22 176.423 111.86C176.643 114.427 176.9 116.737 177.193 118.79C177.193 119.597 176.936 120 176.423 120H166.523C166.156 120 165.753 119.963 165.313 119.89C164.946 119.743 164.726 119.377 164.653 118.79C164.36 116.297 164.103 113.18 163.883 109.44C163.663 105.7 163.48 101.593 163.333 97.12C163.186 92.6467 163.113 88.0633 163.113 83.37C163.113 78.6033 163.15 73.9833 163.223 69.51C163.37 64.9633 163.553 60.7833 163.773 56.97C164.066 53.0833 164.47 49.82 164.983 47.18C165.056 46.8133 165.276 46.52 165.643 46.3C166.01 46.08 166.376 45.97 166.743 45.97H173.013C173.526 45.97 173.93 46.2633 174.223 46.85L205.243 93.71ZM235.342 120C234.535 120 234.132 119.597 234.132 118.79V47.18C234.132 46.3733 234.535 45.97 235.342 45.97H271.422C272.155 45.97 272.595 46.0433 272.742 46.19C272.888 46.2633 272.962 46.6667 272.962 47.4V54.11C272.962 54.9167 272.852 55.3933 272.632 55.54C272.485 55.6867 272.082 55.76 271.422 55.76H247.552C247.112 55.76 246.855 55.7967 246.782 55.87C246.708 55.9433 246.672 56.1633 246.672 56.53V76.99C246.672 77.3567 246.708 77.6133 246.782 77.76C246.928 77.8333 247.148 77.87 247.442 77.87H266.472C267.278 77.87 267.755 77.98 267.902 78.2C268.048 78.3467 268.122 78.86 268.122 79.74V85.79C268.122 86.5967 268.012 87.11 267.792 87.33C267.645 87.4767 267.205 87.55 266.472 87.55H247.442C247.075 87.55 246.855 87.5867 246.782 87.66C246.708 87.7333 246.672 87.9533 246.672 88.32V109.33C246.672 109.697 246.708 109.953 246.782 110.1C246.855 110.247 247.075 110.32 247.442 110.32H271.202C272.082 110.32 272.595 110.43 272.742 110.65C272.888 110.797 272.962 111.273 272.962 112.08V118.24C272.962 119.047 272.852 119.56 272.632 119.78C272.412 119.927 271.935 120 271.202 120H235.342ZM280.128 120C279.541 120 279.175 119.78 279.028 119.34C278.955 118.9 279.028 118.057 279.248 116.81C279.688 113.51 280.421 109.513 281.448 104.82C282.475 100.053 283.685 95.03 285.078 89.75C286.471 84.47 287.975 79.19 289.588 73.91C291.201 68.63 292.851 63.7167 294.538 59.17C296.225 54.6233 297.838 50.81 299.378 47.73C299.671 47.2167 299.965 46.8133 300.258 46.52C300.625 46.1533 301.028 45.97 301.468 45.97H311.478C311.918 46.1167 312.321 46.3 312.688 46.52C313.055 46.74 313.385 47.18 313.678 47.84C315.218 50.7733 316.795 54.55 318.408 59.17C320.095 63.7167 321.745 68.6667 323.358 74.02C324.971 79.3 326.475 84.6167 327.868 89.97C329.335 95.25 330.581 100.237 331.608 104.93C332.635 109.623 333.368 113.583 333.808 116.81C334.028 118.057 334.065 118.9 333.918 119.34C333.845 119.78 333.478 120 332.818 120H323.138C322.625 120 322.258 119.89 322.038 119.67C321.891 119.377 321.671 118.643 321.378 117.47C321.085 115.637 320.681 113.51 320.168 111.09C319.728 108.67 319.288 106.433 318.848 104.38C318.775 103.867 318.665 103.573 318.518 103.5C318.371 103.353 318.041 103.28 317.528 103.28H295.418C294.905 103.28 294.575 103.353 294.428 103.5C294.355 103.573 294.245 103.867 294.098 104.38C293.658 106.433 293.181 108.67 292.668 111.09C292.228 113.51 291.861 115.637 291.568 117.47C291.348 118.643 291.128 119.377 290.908 119.67C290.761 119.89 290.431 120 289.918 120H280.128ZM298.058 93.6H314.888C315.328 93.6 315.585 93.5267 315.658 93.38C315.805 93.16 315.805 92.7567 315.658 92.17C314.485 87.6233 313.275 82.9667 312.028 78.2C310.781 73.4333 309.388 69.0333 307.848 65C307.701 64.4867 307.445 64.23 307.078 64.23H305.868C305.501 64.23 305.208 64.5233 304.988 65.11C304.255 67.31 303.411 69.95 302.458 73.03C301.505 76.0367 300.588 79.2267 299.708 82.6C298.828 85.9733 297.985 89.2367 297.178 92.39C297.105 92.7567 297.105 93.05 297.178 93.27C297.251 93.49 297.545 93.6 298.058 93.6ZM387.354 69.73C387.354 74.4233 386.511 78.75 384.824 82.71C383.137 86.5967 380.607 89.75 377.234 92.17C373.934 94.5167 369.827 95.69 364.914 95.69H357.874C357.507 95.69 357.251 95.7633 357.104 95.91C357.031 96.0567 356.994 96.2767 356.994 96.57V118.79C356.994 119.597 356.517 120 355.564 120H345.664C344.857 120 344.454 119.597 344.454 118.79V47.18C344.454 46.3733 344.857 45.97 345.664 45.97H363.704C372.064 45.97 378.077 47.9133 381.744 51.8C385.484 55.6133 387.354 61.59 387.354 69.73ZM356.994 85.46C356.994 86.12 357.251 86.45 357.764 86.45H363.594C367.261 86.45 370.121 84.9833 372.174 82.05C374.227 79.1167 375.254 75.0467 375.254 69.84C375.181 64.34 374.117 60.4533 372.064 58.18C370.084 55.9067 367.187 54.77 363.374 54.77H357.764C357.471 54.77 357.251 54.8433 357.104 54.99C357.031 55.0633 356.994 55.32 356.994 55.76V85.46ZM441.602 69.73C441.602 74.4233 440.759 78.75 439.072 82.71C437.385 86.5967 434.855 89.75 431.482 92.17C428.182 94.5167 424.075 95.69 419.162 95.69H412.122C411.755 95.69 411.499 95.7633 411.352 95.91C411.279 96.0567 411.242 96.2767 411.242 96.57V118.79C411.242 119.597 410.765 120 409.812 120H399.912C399.105 120 398.702 119.597 398.702 118.79V47.18C398.702 46.3733 399.105 45.97 399.912 45.97H417.952C426.312 45.97 432.325 47.9133 435.992 51.8C439.732 55.6133 441.602 61.59 441.602 69.73ZM411.242 85.46C411.242 86.12 411.499 86.45 412.012 86.45H417.842C421.509 86.45 424.369 84.9833 426.422 82.05C428.475 79.1167 429.502 75.0467 429.502 69.84C429.429 64.34 428.365 60.4533 426.312 58.18C424.332 55.9067 421.435 54.77 417.622 54.77H412.012C411.719 54.77 411.499 54.8433 411.352 54.99C411.279 55.0633 411.242 55.32 411.242 55.76V85.46ZM454.16 120C453.353 120 452.95 119.597 452.95 118.79V47.18C452.95 46.3733 453.353 45.97 454.16 45.97H463.84C464.5 45.97 464.903 46.08 465.05 46.3C465.27 46.52 465.38 46.9233 465.38 47.51V109.33C465.38 109.697 465.417 109.953 465.49 110.1C465.563 110.247 465.82 110.32 466.26 110.32H490.02C490.827 110.32 491.303 110.43 491.45 110.65C491.597 110.797 491.67 111.273 491.67 112.08V118.24C491.67 119.047 491.597 119.56 491.45 119.78C491.303 119.927 490.79 120 489.91 120H454.16ZM501.855 120C501.049 120 500.645 119.597 500.645 118.79V47.18C500.645 46.3733 501.049 45.97 501.855 45.97H537.935C538.669 45.97 539.109 46.0433 539.255 46.19C539.402 46.2633 539.475 46.6667 539.475 47.4V54.11C539.475 54.9167 539.365 55.3933 539.145 55.54C538.999 55.6867 538.595 55.76 537.935 55.76H514.065C513.625 55.76 513.369 55.7967 513.295 55.87C513.222 55.9433 513.185 56.1633 513.185 56.53V76.99C513.185 77.3567 513.222 77.6133 513.295 77.76C513.442 77.8333 513.662 77.87 513.955 77.87H532.985C533.792 77.87 534.269 77.98 534.415 78.2C534.562 78.3467 534.635 78.86 534.635 79.74V85.79C534.635 86.5967 534.525 87.11 534.305 87.33C534.159 87.4767 533.719 87.55 532.985 87.55H513.955C513.589 87.55 513.369 87.5867 513.295 87.66C513.222 87.7333 513.185 87.9533 513.185 88.32V109.33C513.185 109.697 513.222 109.953 513.295 110.1C513.369 110.247 513.589 110.32 513.955 110.32H537.715C538.595 110.32 539.109 110.43 539.255 110.65C539.402 110.797 539.475 111.273 539.475 112.08V118.24C539.475 119.047 539.365 119.56 539.145 119.78C538.925 119.927 538.449 120 537.715 120H501.855Z" fill="#110343"/>
<path d="M81.4 20.32C81.4 18.5333 81.64 16.9333 82.12 15.52C82.6267 14.08 83.4933 12.9467 84.72 12.12C85.9733 11.2933 87.7333 10.88 90 10.88C91.04 10.88 92.0667 10.9733 93.08 11.16C94.12 11.32 95.0267 11.5467 95.8 11.84C96.3867 12.0533 96.7467 12.3067 96.88 12.6C97.0133 12.8667 97.12 13.32 97.2 13.96C97.44 16.0667 97.56 18.4 97.56 20.96C97.5867 23.4933 97.4533 26.0267 97.16 28.56C96.8667 30.88 96.0133 32.5733 94.6 33.64C93.1867 34.7067 91.2533 35.24 88.8 35.24C87.8133 35.24 86.7467 35.0933 85.6 34.8C84.4533 34.5333 83.3733 34.04 82.36 33.32C82.2267 33.2133 82.12 33.08 82.04 32.92C81.9867 32.76 82.0133 32.6 82.12 32.44C82.2267 32.28 82.3867 32 82.6 31.6C82.84 31.2267 83.0133 30.96 83.12 30.8C83.2533 30.5067 83.3733 30.3467 83.48 30.32C83.6133 30.32 83.7867 30.4 84 30.56C84.32 30.7733 84.7467 30.9867 85.28 31.2C85.8133 31.4133 86.3733 31.6 86.96 31.76C87.5467 31.92 88.0533 32 88.48 32C89.0133 32 89.56 31.9067 90.12 31.72C90.7067 31.56 91.2267 31.2667 91.68 30.84C92.1333 30.44 92.4133 29.84 92.52 29.04C92.52 29.0133 92.52 28.9867 92.52 28.96C92.5467 28.9067 92.56 28.8667 92.56 28.84C92.5867 28.6533 92.56 28.52 92.48 28.44C92.4 28.3333 92.2267 28.3067 91.96 28.36C91.6667 28.44 91.2667 28.5067 90.76 28.56C90.28 28.6133 89.8133 28.64 89.36 28.64C87.8667 28.64 86.5067 28.3333 85.28 27.72C84.08 27.1067 83.12 26.1733 82.4 24.92C81.7067 23.6667 81.3733 22.1333 81.4 20.32ZM86 19.64C86 20.7333 86.1067 21.72 86.32 22.6C86.56 23.4533 86.9467 24.1333 87.48 24.64C88.04 25.12 88.8 25.36 89.76 25.36C90.2133 25.36 90.6533 25.3333 91.08 25.28C91.5067 25.2267 91.88 25.1333 92.2 25C92.6533 24.8133 92.8933 24.5067 92.92 24.08C92.9733 23.4933 93 22.7867 93 21.96C93 21.1333 92.9867 20.2933 92.96 19.44C92.96 18.56 92.9467 17.76 92.92 17.04C92.8933 16.2933 92.8533 15.7067 92.8 15.28C92.8 15.12 92.76 14.9333 92.68 14.72C92.6267 14.5067 92.5067 14.36 92.32 14.28C92.0533 14.1467 91.7067 14.04 91.28 13.96C90.8533 13.88 90.3733 13.84 89.84 13.84C88.88 13.84 88.12 14.0933 87.56 14.6C87 15.08 86.6 15.76 86.36 16.64C86.12 17.4933 86 18.4933 86 19.64ZM104.447 20.52C104.447 19.2667 104.567 18.0667 104.807 16.92C105.074 15.7733 105.514 14.7467 106.127 13.84C106.74 12.9067 107.58 12.1733 108.647 11.64C109.74 11.1067 111.114 10.84 112.767 10.84C114.5 10.84 115.874 11.08 116.887 11.56C117.927 12.04 118.7 12.6933 119.207 13.52C119.74 14.32 120.087 15.2133 120.247 16.2C120.434 17.16 120.527 18.12 120.527 19.08C120.527 20.1733 120.407 20.88 120.167 21.2C119.927 21.52 119.567 21.68 119.087 21.68H109.287C109.154 21.68 109.047 21.7067 108.967 21.76C108.914 21.8133 108.887 21.9467 108.887 22.16C108.887 23.0933 109.074 23.9333 109.447 24.68C109.847 25.4267 110.407 26.0133 111.127 26.44C111.874 26.8667 112.767 27.08 113.807 27.08C114.687 27.08 115.554 26.9467 116.407 26.68C117.26 26.4133 117.914 26.16 118.367 25.92C118.66 25.76 118.887 25.6667 119.047 25.64C119.207 25.5867 119.38 25.7467 119.567 26.12L120.327 27.56C120.46 27.8267 120.487 28.0133 120.407 28.12C120.354 28.2267 120.194 28.36 119.927 28.52C119.047 29.1333 117.967 29.5867 116.687 29.88C115.407 30.1467 114.114 30.28 112.807 30.28C111.1 30.28 109.7 30.0267 108.607 29.52C107.514 29.0133 106.66 28.32 106.047 27.44C105.46 26.5333 105.047 25.4933 104.807 24.32C104.567 23.12 104.447 21.8533 104.447 20.52ZM116.047 18.36C116.047 17.56 115.94 16.8533 115.727 16.24C115.54 15.6 115.194 15.1067 114.687 14.76C114.207 14.3867 113.54 14.2 112.687 14.2C112.02 14.2 111.447 14.3333 110.967 14.6C110.514 14.84 110.14 15.1733 109.847 15.6C109.58 16 109.367 16.44 109.207 16.92C109.047 17.4 108.94 17.8667 108.887 18.32C108.887 18.6933 108.9 18.9333 108.927 19.04C108.954 19.12 109.074 19.16 109.287 19.16H115.527C115.767 19.16 115.914 19.12 115.967 19.04C116.047 18.96 116.074 18.7333 116.047 18.36ZM128.109 30C127.762 30 127.589 29.8533 127.589 29.56C127.589 26.76 127.589 23.9733 127.589 21.2C127.589 18.4 127.589 15.6133 127.589 12.84C127.589 12.5733 127.669 12.3867 127.829 12.28C127.989 12.1467 128.322 12 128.829 11.84C129.149 11.7333 129.655 11.6 130.349 11.44C131.042 11.28 131.775 11.1467 132.549 11.04C133.349 10.9067 134.082 10.84 134.749 10.84C136.909 10.84 138.562 11.2533 139.709 12.08C140.855 12.9067 141.642 14 142.069 15.36C142.522 16.72 142.749 18.24 142.749 19.92C142.749 20.9867 142.722 22.08 142.669 23.2C142.642 24.32 142.589 25.4 142.509 26.44C142.455 27.48 142.389 28.3867 142.309 29.16C142.255 29.5867 142.175 29.84 142.069 29.92C141.989 29.9733 141.789 30 141.469 30H138.669C138.349 30 138.122 29.96 137.989 29.88C137.882 29.8 137.842 29.6133 137.869 29.32C137.869 29.1867 137.895 28.76 137.949 28.04C138.002 27.32 138.055 26.4667 138.109 25.48C138.162 24.4667 138.202 23.4667 138.229 22.48C138.255 21.4667 138.269 20.6133 138.269 19.92C138.269 18.5067 138.135 17.4 137.869 16.6C137.602 15.8 137.202 15.24 136.669 14.92C136.135 14.5733 135.455 14.4 134.629 14.4C134.255 14.4 133.895 14.4267 133.549 14.48C133.229 14.5333 132.935 14.6 132.669 14.68C132.455 14.7067 132.282 14.8133 132.149 15C132.042 15.16 131.989 15.44 131.989 15.84C131.989 17.0933 131.989 18.48 131.989 20C131.989 21.52 131.989 23.0933 131.989 24.72C131.989 26.32 131.989 27.9333 131.989 29.56C131.989 29.8533 131.855 30 131.589 30H128.109ZM149.603 20.52C149.603 19.2667 149.723 18.0667 149.963 16.92C150.23 15.7733 150.67 14.7467 151.283 13.84C151.896 12.9067 152.736 12.1733 153.803 11.64C154.896 11.1067 156.27 10.84 157.923 10.84C159.656 10.84 161.03 11.08 162.043 11.56C163.083 12.04 163.856 12.6933 164.363 13.52C164.896 14.32 165.243 15.2133 165.403 16.2C165.59 17.16 165.683 18.12 165.683 19.08C165.683 20.1733 165.563 20.88 165.323 21.2C165.083 21.52 164.723 21.68 164.243 21.68H154.443C154.31 21.68 154.203 21.7067 154.123 21.76C154.07 21.8133 154.043 21.9467 154.043 22.16C154.043 23.0933 154.23 23.9333 154.603 24.68C155.003 25.4267 155.563 26.0133 156.283 26.44C157.03 26.8667 157.923 27.08 158.963 27.08C159.843 27.08 160.71 26.9467 161.563 26.68C162.416 26.4133 163.07 26.16 163.523 25.92C163.816 25.76 164.043 25.6667 164.203 25.64C164.363 25.5867 164.536 25.7467 164.723 26.12L165.483 27.56C165.616 27.8267 165.643 28.0133 165.563 28.12C165.51 28.2267 165.35 28.36 165.083 28.52C164.203 29.1333 163.123 29.5867 161.843 29.88C160.563 30.1467 159.27 30.28 157.963 30.28C156.256 30.28 154.856 30.0267 153.763 29.52C152.67 29.0133 151.816 28.32 151.203 27.44C150.616 26.5333 150.203 25.4933 149.963 24.32C149.723 23.12 149.603 21.8533 149.603 20.52ZM161.203 18.36C161.203 17.56 161.096 16.8533 160.883 16.24C160.696 15.6 160.35 15.1067 159.843 14.76C159.363 14.3867 158.696 14.2 157.843 14.2C157.176 14.2 156.603 14.3333 156.123 14.6C155.67 14.84 155.296 15.1733 155.003 15.6C154.736 16 154.523 16.44 154.363 16.92C154.203 17.4 154.096 17.8667 154.043 18.32C154.043 18.6933 154.056 18.9333 154.083 19.04C154.11 19.12 154.23 19.16 154.443 19.16H160.683C160.923 19.16 161.07 19.12 161.123 19.04C161.203 18.96 161.23 18.7333 161.203 18.36ZM177.785 30C177.572 30 177.412 29.92 177.305 29.76C176.612 28.64 176.012 27.4533 175.505 26.2C174.998 24.92 174.518 23.6533 174.065 22.4C173.292 20.2667 172.692 18.36 172.265 16.68C171.838 15 171.505 13.48 171.265 12.12C171.158 11.4533 171.278 11.12 171.625 11.12H175.265C175.425 11.12 175.558 11.1733 175.665 11.28C175.772 11.36 175.838 11.4667 175.865 11.6C175.945 12.4267 176.092 13.3467 176.305 14.36C176.518 15.3467 176.758 16.4533 177.025 17.68C177.372 19.0667 177.692 20.2667 177.985 21.28C178.305 22.2667 178.612 23.12 178.905 23.84C178.958 24.0533 179.038 24.1467 179.145 24.12C179.278 24.0933 179.372 24 179.425 23.84C179.665 23.3067 179.905 22.6267 180.145 21.8C180.412 20.9467 180.692 19.9067 180.985 18.68C181.305 17.32 181.585 15.9733 181.825 14.64C182.092 13.3067 182.265 12.2133 182.345 11.36C182.372 11.2267 182.452 11.16 182.585 11.16H186.465C186.625 11.16 186.692 11.2533 186.665 11.44C186.425 13.0667 186.078 14.8 185.625 16.64C185.198 18.48 184.638 20.3733 183.945 22.32C183.545 23.52 183.078 24.7467 182.545 26C182.012 27.2533 181.398 28.52 180.705 29.8C180.625 29.96 180.505 30.04 180.345 30.04L177.785 30ZM197.656 5.92C197.656 6.64 197.509 7.18666 197.216 7.56C196.922 7.90667 196.296 8.08 195.336 8.08C194.402 8.08 193.762 7.90667 193.416 7.56C193.096 7.18666 192.936 6.64 192.936 5.92C192.936 5.30667 193.096 4.81333 193.416 4.44C193.762 4.06666 194.402 3.88 195.336 3.88C196.349 3.88 196.989 4.06666 197.256 4.44C197.522 4.81333 197.656 5.30667 197.656 5.92ZM197.536 29.56C197.536 29.8533 197.376 30 197.056 30H193.576C193.282 30 193.136 29.8533 193.136 29.56V11.56C193.136 11.2667 193.282 11.12 193.576 11.12H197.056C197.376 11.12 197.536 11.2667 197.536 11.56V29.56ZM210.285 30C210.072 30 209.912 29.92 209.805 29.76C209.112 28.64 208.512 27.4533 208.005 26.2C207.498 24.92 207.018 23.6533 206.565 22.4C205.792 20.2667 205.192 18.36 204.765 16.68C204.338 15 204.005 13.48 203.765 12.12C203.658 11.4533 203.778 11.12 204.125 11.12H207.765C207.925 11.12 208.058 11.1733 208.165 11.28C208.272 11.36 208.338 11.4667 208.365 11.6C208.445 12.4267 208.592 13.3467 208.805 14.36C209.018 15.3467 209.258 16.4533 209.525 17.68C209.872 19.0667 210.192 20.2667 210.485 21.28C210.805 22.2667 211.112 23.12 211.405 23.84C211.458 24.0533 211.538 24.1467 211.645 24.12C211.778 24.0933 211.872 24 211.925 23.84C212.165 23.3067 212.405 22.6267 212.645 21.8C212.912 20.9467 213.192 19.9067 213.485 18.68C213.805 17.32 214.085 15.9733 214.325 14.64C214.592 13.3067 214.765 12.2133 214.845 11.36C214.872 11.2267 214.952 11.16 215.085 11.16H218.965C219.125 11.16 219.192 11.2533 219.165 11.44C218.925 13.0667 218.578 14.8 218.125 16.64C217.698 18.48 217.138 20.3733 216.445 22.32C216.045 23.52 215.578 24.7467 215.045 26C214.512 27.2533 213.898 28.52 213.205 29.8C213.125 29.96 213.005 30.04 212.845 30.04L210.285 30Z" fill="#110343"/>
<g clip-path="url(#clip1_81_489)">
<path d="M53.5834 68.6971L54.5453 67.6944C52.6516 62.1487 49.746 57.3192 46.1391 53.605L42.4119 57.4727L53.5834 68.6869V68.6971Z" fill="#110343"/>
<path d="M40.9305 59.0091L29.8749 70.4941L41.0498 81.7126L52.1054 70.2276L40.9305 59.0091Z" fill="#110343"/>
<path d="M14.1373 57.7183L10.4602 54.0246C6.92339 57.8104 4.09793 62.6705 2.27441 68.2367L3.15612 69.1166L14.1373 57.708V57.7183Z" fill="#110343"/>
<path d="M15.6458 59.2212L4.66046 70.6332L15.9068 81.9234L26.8922 70.5114L15.6458 59.2212Z" fill="#110343"/>
<path d="M25.5994 45.8185C20.5496 46.4836 15.8906 48.8677 11.9731 52.5205L15.6201 56.1835L25.5994 45.8185Z" fill="#110343"/>
<path d="M44.5961 52.1316C40.5883 48.5402 35.8392 46.2585 30.7193 45.7367L40.909 55.9686L44.6061 52.1316H44.5961Z" fill="#110343"/>
<path d="M28.1743 46.2046L17.1187 57.6895L28.3651 68.9797L39.4207 57.4947L28.1743 46.2046Z" fill="#110343"/>
<path d="M41.0729 84.757L30.0875 96.169L41.2767 107.402L52.2621 95.9898L41.0729 84.757Z" fill="#110343"/>
<path d="M14.4278 83.472L3.17613 72.176L0.671296 74.7851C0.230445 77.3738 0 80.0546 0 82.8172C0 86.1426 0.340657 89.3554 0.961856 92.425L3.42661 94.9011L14.4278 83.4823V83.472Z" fill="#110343"/>
<path d="M17.604 109.134L28.4249 120C28.4249 120 28.475 120 28.495 120C28.7154 120 28.9359 120 29.1463 119.99L39.7868 108.939L28.6052 97.7046L17.604 109.123V109.134Z" fill="#110343"/>
<path d="M56.2686 74.4168L53.6135 71.7462L42.5521 83.2367L53.7337 94.4713L56.1183 91.985C56.6894 89.0587 56.99 85.9891 56.99 82.8172C56.99 79.9318 56.7395 77.118 56.2586 74.4168H56.2686Z" fill="#110343"/>
<path d="M28.392 72.0258L17.4067 83.4378L28.5816 94.6563L39.5669 83.2443L28.392 72.0258Z" fill="#110343"/>
<path d="M15.9423 84.9685L4.94293 96.3951L16.1178 107.614L27.1172 96.1869L15.9423 84.9685Z" fill="#110343"/>
<path d="M42.7725 108.909L45.9987 112.152C49.6057 108.479 52.5213 103.701 54.445 98.1958L53.7537 97.5L42.7725 108.909Z" fill="#110343"/>
<path d="M12.945 113.973C16.5419 117.033 20.7 119.069 25.1686 119.744L16.1312 110.668L12.945 113.973Z" fill="#110343"/>
<path d="M32.4426 119.642C36.8511 118.844 40.929 116.736 44.4558 113.626L41.2897 110.454L32.4426 119.642Z" fill="#110343"/>
<path d="M3.45669 97.94L2.72528 98.6971C4.70911 104.181 7.69487 108.919 11.372 112.531L14.6283 109.154L3.45669 97.94Z" fill="#110343"/>
<path d="M28.1944 42.9536L55.437 15.1228L40.0373 19.3588L43.5941 3.02865L32.9336 15.1228L28.1944 0L23.4553 15.1228L12.7947 3.02865L16.3416 19.3588L0.941833 15.1228L28.1944 42.9536Z" fill="#110343"/>
</g>
</g>
<defs>
<clipPath id="clip0_81_489">
<rect width="540" height="120" fill="white"/>
</clipPath>
<clipPath id="clip1_81_489">
<rect width="57" height="120" fill="white"/>
</clipPath>
</defs>
</svg>
