<svg width="365" height="160" viewBox="0 0 365 160" fill="none" xmlns="http://www.w3.org/2000/svg">
<g clip-path="url(#clip0_81_489)">
<g clip-path="url(#clip1_81_489)">
<path d="M53.5834 68.6971L54.5453 67.6944C52.6516 62.1487 49.746 57.3192 46.1391 53.605L42.4119 57.4727L53.5834 68.6869V68.6971Z" fill="#11053C"/>
<path d="M40.9306 59.0091L29.875 70.4941L41.0499 81.7126L52.1055 70.2276L40.9306 59.0091Z" fill="#11053C"/>
<path d="M14.1373 57.7183L10.4602 54.0246C6.92336 57.8104 4.0979 62.6705 2.27438 68.2367L3.15609 69.1167L14.1373 57.7081V57.7183Z" fill="#11053C"/>
<path d="M15.6458 59.2212L4.66043 70.6332L15.9068 81.9234L26.8921 70.5114L15.6458 59.2212Z" fill="#11053C"/>
<path d="M25.5994 45.8185C20.5497 46.4836 15.8907 48.8677 11.9731 52.5205L15.6202 56.1835L25.5994 45.8185Z" fill="#11053C"/>
<path d="M44.596 52.1316C40.5883 48.5402 35.8391 46.2585 30.7193 45.7367L40.9089 55.9686L44.6061 52.1316H44.596Z" fill="#11053C"/>
<path d="M28.1743 46.2046L17.1187 57.6895L28.3651 68.9797L39.4207 57.4947L28.1743 46.2046Z" fill="#11053C"/>
<path d="M41.0729 84.757L30.0875 96.169L41.2767 107.402L52.2621 95.9898L41.0729 84.757Z" fill="#11053C"/>
<path d="M14.4278 83.472L3.17613 72.176L0.671296 74.7851C0.230445 77.3738 0 80.0546 0 82.8172C0 86.1426 0.340657 89.3554 0.961856 92.425L3.42661 94.9011L14.4278 83.4823V83.472Z" fill="#11053C"/>
<path d="M17.604 109.134L28.4249 120C28.4249 120 28.475 120 28.495 120C28.7154 120 28.9358 120 29.1462 119.99L39.7868 108.939L28.6052 97.7046L17.604 109.123V109.134Z" fill="#11053C"/>
<path d="M56.2686 74.4168L53.6135 71.7462L42.5521 83.2367L53.7337 94.4713L56.1183 91.985C56.6894 89.0587 56.99 85.9891 56.99 82.8172C56.99 79.9318 56.7395 77.118 56.2586 74.4168H56.2686Z" fill="#11053C"/>
<path d="M28.392 72.0258L17.4066 83.4378L28.5815 94.6563L39.5669 83.2443L28.392 72.0258Z" fill="#11053C"/>
<path d="M15.9423 84.9685L4.94293 96.3951L16.1178 107.614L27.1172 96.1869L15.9423 84.9685Z" fill="#11053C"/>
<path d="M42.7726 108.909L45.9988 112.152C49.6057 108.479 52.5214 103.701 54.4451 98.1958L53.7537 97.5L42.7726 108.909Z" fill="#11053C"/>
<path d="M12.945 113.973C16.5419 117.033 20.6999 119.069 25.1686 119.744L16.1311 110.668L12.945 113.973Z" fill="#11053C"/>
<path d="M32.4426 119.642C36.8511 118.844 40.929 116.736 44.4558 113.626L41.2897 110.454L32.4426 119.642Z" fill="#11053C"/>
<path d="M3.45666 97.94L2.72525 98.6971C4.70908 104.181 7.69484 108.919 11.3719 112.531L14.6282 109.154L3.45666 97.94Z" fill="#11053C"/>
<path d="M28.1944 42.9536L55.437 15.1228L40.0373 19.3588L43.5941 3.02865L32.9335 15.1228L28.1944 0L23.4552 15.1228L12.7947 3.02865L16.3415 19.3588L0.941803 15.1228L28.1944 42.9536Z" fill="#11053C"/>
</g>
<path d="M87.272 55.156C87.272 56.4253 87.1507 57.4147 86.908 58.124C86.6653 58.8333 86.2733 59.328 85.732 59.608C85.1907 59.888 84.4533 60.028 83.52 60.028L81.392 60C81.28 60 81.168 59.9813 81.056 59.944C80.9627 59.9067 80.916 59.8413 80.916 59.748V58.6C80.916 58.4507 80.9907 58.3853 81.14 58.404C81.4387 58.404 81.7653 58.4133 82.12 58.432C82.4933 58.432 82.8293 58.432 83.128 58.432C83.8373 58.432 84.36 58.2453 84.696 57.872C85.0507 57.4987 85.228 56.7987 85.228 55.772V41.38C85.228 41.2307 85.3027 41.156 85.452 41.156H87.076C87.132 41.156 87.1787 41.1747 87.216 41.212C87.2533 41.2493 87.272 41.3053 87.272 41.38V55.156ZM90.4872 53.364C90.4872 52.4867 90.5712 51.6467 90.7392 50.844C90.9259 50.0413 91.2245 49.3227 91.6352 48.688C92.0459 48.0347 92.6059 47.5307 93.3152 47.176C94.0432 46.8027 94.9672 46.616 96.0872 46.616C97.2259 46.616 98.1405 46.784 98.8312 47.12C99.5219 47.456 100.035 47.904 100.371 48.464C100.726 49.024 100.959 49.64 101.071 50.312C101.202 50.984 101.267 51.656 101.267 52.328C101.267 53.0187 101.193 53.448 101.043 53.616C100.913 53.784 100.707 53.868 100.427 53.868H92.7832C92.7272 53.868 92.6619 53.8867 92.5872 53.924C92.5312 53.9613 92.5032 54.064 92.5032 54.232C92.5032 55.0907 92.6432 55.856 92.9232 56.528C93.2032 57.1813 93.6325 57.6947 94.2112 58.068C94.8085 58.4413 95.5552 58.628 96.4512 58.628C97.0672 58.628 97.7112 58.5533 98.3832 58.404C99.0552 58.236 99.6152 58.04 100.063 57.816C100.213 57.7227 100.334 57.6667 100.427 57.648C100.521 57.6293 100.605 57.704 100.679 57.872L101.043 58.572C101.099 58.684 101.109 58.768 101.071 58.824C101.053 58.8613 100.987 58.9173 100.875 58.992C100.278 59.384 99.5499 59.6827 98.6912 59.888C97.8512 60.0747 96.9925 60.168 96.1152 60.168C94.9579 60.168 94.0152 60 93.2872 59.664C92.5592 59.3093 91.9899 58.824 91.5792 58.208C91.1685 57.5733 90.8792 56.8453 90.7112 56.024C90.5619 55.2027 90.4872 54.316 90.4872 53.364ZM99.2232 51.992C99.2232 51.32 99.1392 50.704 98.9712 50.144C98.8032 49.5653 98.4859 49.0987 98.0192 48.744C97.5712 48.3893 96.9085 48.212 96.0312 48.212C95.3965 48.212 94.8552 48.3333 94.4072 48.576C93.9592 48.8187 93.6045 49.136 93.3432 49.528C93.0819 49.9013 92.8859 50.3213 92.7552 50.788C92.6245 51.236 92.5405 51.6653 92.5032 52.076C92.5032 52.2627 92.5125 52.3933 92.5312 52.468C92.5685 52.524 92.6619 52.552 92.8112 52.552H98.7472C98.9339 52.552 99.0645 52.524 99.1392 52.468C99.2139 52.412 99.2419 52.2533 99.2232 51.992ZM104.346 60C104.197 60 104.122 59.9253 104.122 59.776C104.122 57.7973 104.122 55.8187 104.122 53.84C104.122 51.8613 104.122 49.8733 104.122 47.876C104.122 47.764 104.159 47.6707 104.234 47.596C104.309 47.5027 104.477 47.4093 104.738 47.316C104.981 47.2413 105.335 47.1573 105.802 47.064C106.287 46.952 106.801 46.8493 107.342 46.756C107.902 46.6627 108.415 46.616 108.882 46.616C110.319 46.616 111.421 46.896 112.186 47.456C112.97 48.016 113.511 48.7813 113.81 49.752C114.109 50.704 114.258 51.7587 114.258 52.916C114.258 53.7747 114.239 54.6427 114.202 55.52C114.165 56.3787 114.118 57.172 114.062 57.9C114.025 58.628 113.987 59.2067 113.95 59.636C113.931 59.804 113.894 59.9067 113.838 59.944C113.801 59.9813 113.698 60 113.53 60H112.326C112.177 60 112.074 59.9813 112.018 59.944C111.962 59.888 111.943 59.7947 111.962 59.664C111.962 59.552 111.971 59.2533 111.99 58.768C112.027 58.2827 112.065 57.704 112.102 57.032C112.139 56.3413 112.167 55.632 112.186 54.904C112.223 54.1573 112.242 53.476 112.242 52.86C112.242 51.852 112.121 51.012 111.878 50.34C111.635 49.668 111.262 49.164 110.758 48.828C110.273 48.492 109.638 48.324 108.854 48.324C108.443 48.324 108.042 48.3613 107.65 48.436C107.258 48.5107 106.903 48.604 106.586 48.716C106.474 48.7347 106.362 48.8 106.25 48.912C106.157 49.0053 106.11 49.1733 106.11 49.416C106.11 50.4613 106.11 51.5627 106.11 52.72C106.11 53.8773 106.11 55.0533 106.11 56.248C106.11 57.424 106.11 58.6 106.11 59.776C106.11 59.9253 106.045 60 105.914 60H104.346ZM116.983 53.364C116.983 52.4867 117.067 51.6467 117.235 50.844C117.422 50.0413 117.721 49.3227 118.131 48.688C118.542 48.0347 119.102 47.5307 119.811 47.176C120.539 46.8027 121.463 46.616 122.583 46.616C123.722 46.616 124.637 46.784 125.327 47.12C126.018 47.456 126.531 47.904 126.867 48.464C127.222 49.024 127.455 49.64 127.567 50.312C127.698 50.984 127.763 51.656 127.763 52.328C127.763 53.0187 127.689 53.448 127.539 53.616C127.409 53.784 127.203 53.868 126.923 53.868H119.279C119.223 53.868 119.158 53.8867 119.083 53.924C119.027 53.9613 118.999 54.064 118.999 54.232C118.999 55.0907 119.139 55.856 119.419 56.528C119.699 57.1813 120.129 57.6947 120.707 58.068C121.305 58.4413 122.051 58.628 122.947 58.628C123.563 58.628 124.207 58.5533 124.879 58.404C125.551 58.236 126.111 58.04 126.559 57.816C126.709 57.7227 126.83 57.6667 126.923 57.648C127.017 57.6293 127.101 57.704 127.175 57.872L127.539 58.572C127.595 58.684 127.605 58.768 127.567 58.824C127.549 58.8613 127.483 58.9173 127.371 58.992C126.774 59.384 126.046 59.6827 125.187 59.888C124.347 60.0747 123.489 60.168 122.611 60.168C121.454 60.168 120.511 60 119.783 59.664C119.055 59.3093 118.486 58.824 118.075 58.208C117.665 57.5733 117.375 56.8453 117.207 56.024C117.058 55.2027 116.983 54.316 116.983 53.364ZM125.719 51.992C125.719 51.32 125.635 50.704 125.467 50.144C125.299 49.5653 124.982 49.0987 124.515 48.744C124.067 48.3893 123.405 48.212 122.527 48.212C121.893 48.212 121.351 48.3333 120.903 48.576C120.455 48.8187 120.101 49.136 119.839 49.528C119.578 49.9013 119.382 50.3213 119.251 50.788C119.121 51.236 119.037 51.6653 118.999 52.076C118.999 52.2627 119.009 52.3933 119.027 52.468C119.065 52.524 119.158 52.552 119.307 52.552H125.243C125.43 52.552 125.561 52.524 125.635 52.468C125.71 52.412 125.738 52.2533 125.719 51.992ZM133.726 60C133.596 60 133.502 59.944 133.446 59.832C132.998 59.048 132.597 58.2173 132.242 57.34C131.888 56.444 131.552 55.5573 131.234 54.68C130.73 53.1867 130.32 51.8053 130.002 50.536C129.685 49.2667 129.461 48.1653 129.33 47.232C129.274 46.9333 129.33 46.784 129.498 46.784H131.122C131.197 46.784 131.262 46.812 131.318 46.868C131.374 46.9053 131.412 46.9707 131.43 47.064C131.505 47.6987 131.636 48.4547 131.822 49.332C132.028 50.1907 132.261 51.1147 132.522 52.104C132.821 53.2053 133.129 54.2133 133.446 55.128C133.764 56.0427 134.053 56.752 134.314 57.256C134.352 57.368 134.398 57.4147 134.454 57.396C134.529 57.3773 134.585 57.3307 134.622 57.256C134.846 56.8453 135.089 56.2573 135.35 55.492C135.63 54.708 135.91 53.8213 136.19 52.832C136.47 51.7493 136.722 50.676 136.946 49.612C137.189 48.5293 137.348 47.652 137.422 46.98C137.441 46.8493 137.506 46.784 137.618 46.784H139.298C139.41 46.784 139.457 46.8493 139.438 46.98C139.289 47.988 139.065 49.136 138.766 50.424C138.468 51.712 138.076 53.056 137.59 54.456C137.31 55.352 136.974 56.2573 136.582 57.172C136.209 58.068 135.798 58.9547 135.35 59.832C135.294 59.944 135.21 60 135.098 60H133.726ZM144.012 43.144C144.012 43.48 143.937 43.7413 143.788 43.928C143.657 44.096 143.358 44.18 142.892 44.18C142.444 44.18 142.136 44.096 141.968 43.928C141.818 43.7413 141.744 43.48 141.744 43.144C141.744 42.8267 141.818 42.584 141.968 42.416C142.136 42.2293 142.444 42.136 142.892 42.136C143.377 42.136 143.685 42.2293 143.816 42.416C143.946 42.584 144.012 42.8267 144.012 43.144ZM143.9 59.804C143.9 59.9347 143.825 60 143.676 60H142.108C141.977 60 141.912 59.9347 141.912 59.804V46.98C141.912 46.8493 141.977 46.784 142.108 46.784H143.676C143.825 46.784 143.9 46.8493 143.9 46.98V59.804ZM150.652 60C150.521 60 150.428 59.944 150.372 59.832C149.924 59.048 149.523 58.2173 149.168 57.34C148.813 56.444 148.477 55.5573 148.16 54.68C147.656 53.1867 147.245 51.8053 146.928 50.536C146.611 49.2667 146.387 48.1653 146.256 47.232C146.2 46.9333 146.256 46.784 146.424 46.784H148.048C148.123 46.784 148.188 46.812 148.244 46.868C148.3 46.9053 148.337 46.9707 148.356 47.064C148.431 47.6987 148.561 48.4547 148.748 49.332C148.953 50.1907 149.187 51.1147 149.448 52.104C149.747 53.2053 150.055 54.2133 150.372 55.128C150.689 56.0427 150.979 56.752 151.24 57.256C151.277 57.368 151.324 57.4147 151.38 57.396C151.455 57.3773 151.511 57.3307 151.548 57.256C151.772 56.8453 152.015 56.2573 152.276 55.492C152.556 54.708 152.836 53.8213 153.116 52.832C153.396 51.7493 153.648 50.676 153.872 49.612C154.115 48.5293 154.273 47.652 154.348 46.98C154.367 46.8493 154.432 46.784 154.544 46.784H156.224C156.336 46.784 156.383 46.8493 156.364 46.98C156.215 47.988 155.991 49.136 155.692 50.424C155.393 51.712 155.001 53.056 154.516 54.456C154.236 55.352 153.9 56.2573 153.508 57.172C153.135 58.068 152.724 58.9547 152.276 59.832C152.22 59.944 152.136 60 152.024 60H150.652ZM158.054 53.364C158.054 52.4867 158.138 51.6467 158.306 50.844C158.492 50.0413 158.791 49.3227 159.202 48.688C159.612 48.0347 160.172 47.5307 160.882 47.176C161.61 46.8027 162.534 46.616 163.654 46.616C164.792 46.616 165.707 46.784 166.398 47.12C167.088 47.456 167.602 47.904 167.938 48.464C168.292 49.024 168.526 49.64 168.638 50.312C168.768 50.984 168.834 51.656 168.834 52.328C168.834 53.0187 168.759 53.448 168.61 53.616C168.479 53.784 168.274 53.868 167.994 53.868H160.35C160.294 53.868 160.228 53.8867 160.154 53.924C160.098 53.9613 160.07 54.064 160.07 54.232C160.07 55.0907 160.21 55.856 160.49 56.528C160.77 57.1813 161.199 57.6947 161.778 58.068C162.375 58.4413 163.122 58.628 164.018 58.628C164.634 58.628 165.278 58.5533 165.95 58.404C166.622 58.236 167.182 58.04 167.63 57.816C167.779 57.7227 167.9 57.6667 167.994 57.648C168.087 57.6293 168.171 57.704 168.246 57.872L168.61 58.572C168.666 58.684 168.675 58.768 168.638 58.824C168.619 58.8613 168.554 58.9173 168.442 58.992C167.844 59.384 167.116 59.6827 166.258 59.888C165.418 60.0747 164.559 60.168 163.682 60.168C162.524 60.168 161.582 60 160.854 59.664C160.126 59.3093 159.556 58.824 159.146 58.208C158.735 57.5733 158.446 56.8453 158.278 56.024C158.128 55.2027 158.054 54.316 158.054 53.364ZM166.79 51.992C166.79 51.32 166.706 50.704 166.538 50.144C166.37 49.5653 166.052 49.0987 165.586 48.744C165.138 48.3893 164.475 48.212 163.598 48.212C162.963 48.212 162.422 48.3333 161.974 48.576C161.526 48.8187 161.171 49.136 160.91 49.528C160.648 49.9013 160.452 50.3213 160.322 50.788C160.191 51.236 160.107 51.6653 160.07 52.076C160.07 52.2627 160.079 52.3933 160.098 52.468C160.135 52.524 160.228 52.552 160.378 52.552H166.314C166.5 52.552 166.631 52.524 166.706 52.468C166.78 52.412 166.808 52.2533 166.79 51.992Z" fill="#11053C"/>
<path d="M108.28 88.924C108.28 91.8253 107.759 94.5 106.716 96.948C105.673 99.3507 104.109 101.3 102.024 102.796C99.984 104.247 97.4453 104.972 94.408 104.972H90.056C89.8293 104.972 89.6707 105.017 89.58 105.108C89.5347 105.199 89.512 105.335 89.512 105.516V119.252C89.512 119.751 89.2173 120 88.628 120H82.508C82.0093 120 81.76 119.751 81.76 119.252V74.984C81.76 74.4853 82.0093 74.236 82.508 74.236H93.66C98.828 74.236 102.545 75.4373 104.812 77.84C107.124 80.1973 108.28 83.892 108.28 88.924ZM89.512 98.648C89.512 99.056 89.6707 99.26 89.988 99.26H93.592C95.8587 99.26 97.6267 98.3533 98.896 96.54C100.165 94.7267 100.8 92.2107 100.8 88.992C100.755 85.592 100.097 83.1893 98.828 81.784C97.604 80.3787 95.8133 79.676 93.456 79.676H89.988C89.8067 79.676 89.6707 79.7213 89.58 79.812C89.5347 79.8573 89.512 80.016 89.512 80.288V98.648ZM122.979 119.252C122.979 119.751 122.707 120 122.163 120H116.043C115.544 120 115.295 119.751 115.295 119.252V74.984C115.295 74.4853 115.544 74.236 116.043 74.236H122.163C122.707 74.236 122.979 74.4853 122.979 74.984V119.252ZM158.132 103.748C158.223 103.929 158.381 104.02 158.608 104.02C158.835 104.02 158.948 103.884 158.948 103.612C159.039 102.161 159.084 100.552 159.084 98.784C159.084 96.9707 159.061 95.0667 159.016 93.072C159.016 91.0773 158.971 89.0373 158.88 86.952C158.835 84.8667 158.744 82.8267 158.608 80.832C158.472 78.792 158.291 76.8653 158.064 75.052C158.019 74.508 158.155 74.236 158.472 74.236H164.66C164.932 74.236 165.159 74.304 165.34 74.44C165.567 74.576 165.703 74.7573 165.748 74.984C166.065 76.6613 166.315 78.7013 166.496 81.104C166.677 83.4613 166.791 86.0453 166.836 88.856C166.881 91.6667 166.881 94.5453 166.836 97.492C166.836 100.393 166.768 103.227 166.632 105.992C166.541 108.757 166.428 111.296 166.292 113.608C166.156 115.875 165.997 117.756 165.816 119.252C165.771 119.615 165.635 119.841 165.408 119.932C165.181 119.977 164.932 120 164.66 120H160.648C160.331 120 160.013 119.683 159.696 119.048L140.656 90.216C140.611 90.0347 140.497 89.944 140.316 89.944C140.135 89.944 140.044 90.0573 140.044 90.284C139.999 92.596 139.953 94.8853 139.908 97.152C139.908 99.3733 139.908 101.549 139.908 103.68C139.953 105.765 139.999 107.76 140.044 109.664C140.135 111.568 140.225 113.336 140.316 114.968C140.452 116.555 140.611 117.983 140.792 119.252C140.792 119.751 140.633 120 140.316 120H134.196C133.969 120 133.72 119.977 133.448 119.932C133.221 119.841 133.085 119.615 133.04 119.252C132.859 117.711 132.7 115.784 132.564 113.472C132.428 111.16 132.315 108.621 132.224 105.856C132.133 103.091 132.088 100.257 132.088 97.356C132.088 94.4093 132.111 91.5533 132.156 88.788C132.247 85.9773 132.36 83.3933 132.496 81.036C132.677 78.6333 132.927 76.616 133.244 74.984C133.289 74.7573 133.425 74.576 133.652 74.44C133.879 74.304 134.105 74.236 134.332 74.236H138.208C138.525 74.236 138.775 74.4173 138.956 74.78L158.132 103.748ZM176.738 120C176.24 120 175.99 119.751 175.99 119.252V74.984C175.99 74.4853 176.24 74.236 176.738 74.236H199.042C199.496 74.236 199.768 74.2813 199.858 74.372C199.949 74.4173 199.994 74.6667 199.994 75.12V79.268C199.994 79.7667 199.926 80.0613 199.79 80.152C199.7 80.2427 199.45 80.288 199.042 80.288H184.286C184.014 80.288 183.856 80.3107 183.81 80.356C183.765 80.4013 183.742 80.5373 183.742 80.764V93.412C183.742 93.6387 183.765 93.7973 183.81 93.888C183.901 93.9333 184.037 93.956 184.218 93.956H195.982C196.481 93.956 196.776 94.024 196.866 94.16C196.957 94.2507 197.002 94.568 197.002 95.112V98.852C197.002 99.3507 196.934 99.668 196.798 99.804C196.708 99.8947 196.436 99.94 195.982 99.94H184.218C183.992 99.94 183.856 99.9627 183.81 100.008C183.765 100.053 183.742 100.189 183.742 100.416V113.404C183.742 113.631 183.765 113.789 183.81 113.88C183.856 113.971 183.992 114.016 184.218 114.016H198.906C199.45 114.016 199.768 114.084 199.858 114.22C199.949 114.311 199.994 114.605 199.994 115.104V118.912C199.994 119.411 199.926 119.728 199.79 119.864C199.654 119.955 199.36 120 198.906 120H176.738ZM204.425 120C204.062 120 203.835 119.864 203.745 119.592C203.699 119.32 203.745 118.799 203.881 118.028C204.153 115.988 204.606 113.517 205.241 110.616C205.875 107.669 206.623 104.564 207.485 101.3C208.346 98.036 209.275 94.772 210.273 91.508C211.27 88.244 212.29 85.2067 213.333 82.396C214.375 79.5853 215.373 77.228 216.325 75.324C216.506 75.0067 216.687 74.7573 216.869 74.576C217.095 74.3493 217.345 74.236 217.617 74.236H223.805C224.077 74.3267 224.326 74.44 224.553 74.576C224.779 74.712 224.983 74.984 225.165 75.392C226.117 77.2053 227.091 79.54 228.089 82.396C229.131 85.2067 230.151 88.2667 231.149 91.576C232.146 94.84 233.075 98.1267 233.937 101.436C234.843 104.7 235.614 107.783 236.249 110.684C236.883 113.585 237.337 116.033 237.609 118.028C237.745 118.799 237.767 119.32 237.677 119.592C237.631 119.864 237.405 120 236.997 120H231.013C230.695 120 230.469 119.932 230.333 119.796C230.242 119.615 230.106 119.161 229.925 118.436C229.743 117.303 229.494 115.988 229.177 114.492C228.905 112.996 228.633 111.613 228.361 110.344C228.315 110.027 228.247 109.845 228.157 109.8C228.066 109.709 227.862 109.664 227.545 109.664H213.877C213.559 109.664 213.355 109.709 213.265 109.8C213.219 109.845 213.151 110.027 213.061 110.344C212.789 111.613 212.494 112.996 212.177 114.492C211.905 115.988 211.678 117.303 211.497 118.436C211.361 119.161 211.225 119.615 211.089 119.796C210.998 119.932 210.794 120 210.477 120H204.425ZM215.509 103.68H225.913C226.185 103.68 226.343 103.635 226.389 103.544C226.479 103.408 226.479 103.159 226.389 102.796C225.663 99.9853 224.915 97.1067 224.145 94.16C223.374 91.2133 222.513 88.4933 221.561 86C221.47 85.6827 221.311 85.524 221.085 85.524H220.337C220.11 85.524 219.929 85.7053 219.793 86.068C219.339 87.428 218.818 89.06 218.229 90.964C217.639 92.8227 217.073 94.7947 216.529 96.88C215.985 98.9653 215.463 100.983 214.965 102.932C214.919 103.159 214.919 103.34 214.965 103.476C215.01 103.612 215.191 103.68 215.509 103.68ZM270.71 88.924C270.71 91.8253 270.188 94.5 269.146 96.948C268.103 99.3507 266.539 101.3 264.454 102.796C262.414 104.247 259.875 104.972 256.838 104.972H252.486C252.259 104.972 252.1 105.017 252.01 105.108C251.964 105.199 251.942 105.335 251.942 105.516V119.252C251.942 119.751 251.647 120 251.058 120H244.938C244.439 120 244.19 119.751 244.19 119.252V74.984C244.19 74.4853 244.439 74.236 244.938 74.236H256.09C261.258 74.236 264.975 75.4373 267.242 77.84C269.554 80.1973 270.71 83.892 270.71 88.924ZM251.942 98.648C251.942 99.056 252.1 99.26 252.418 99.26H256.022C258.288 99.26 260.056 98.3533 261.326 96.54C262.595 94.7267 263.23 92.2107 263.23 88.992C263.184 85.592 262.527 83.1893 261.258 81.784C260.034 80.3787 258.243 79.676 255.886 79.676H252.418C252.236 79.676 252.1 79.7213 252.01 79.812C251.964 79.8573 251.942 80.016 251.942 80.288V98.648ZM304.245 88.924C304.245 91.8253 303.724 94.5 302.681 96.948C301.638 99.3507 300.074 101.3 297.989 102.796C295.949 104.247 293.41 104.972 290.373 104.972H286.021C285.794 104.972 285.636 105.017 285.545 105.108C285.5 105.199 285.477 105.335 285.477 105.516V119.252C285.477 119.751 285.182 120 284.593 120H278.473C277.974 120 277.725 119.751 277.725 119.252V74.984C277.725 74.4853 277.974 74.236 278.473 74.236H289.625C294.793 74.236 298.51 75.4373 300.777 77.84C303.089 80.1973 304.245 83.892 304.245 88.924ZM285.477 98.648C285.477 99.056 285.636 99.26 285.953 99.26H289.557C291.824 99.26 293.592 98.3533 294.861 96.54C296.13 94.7267 296.765 92.2107 296.765 88.992C296.72 85.592 296.062 83.1893 294.793 81.784C293.569 80.3787 291.778 79.676 289.421 79.676H285.953C285.772 79.676 285.636 79.7213 285.545 79.812C285.5 79.8573 285.477 80.016 285.477 80.288V98.648ZM312.008 120C311.509 120 311.26 119.751 311.26 119.252V74.984C311.26 74.4853 311.509 74.236 312.008 74.236H317.992C318.4 74.236 318.649 74.304 318.74 74.44C318.876 74.576 318.944 74.8253 318.944 75.188V113.404C318.944 113.631 318.967 113.789 319.012 113.88C319.057 113.971 319.216 114.016 319.488 114.016H334.176C334.675 114.016 334.969 114.084 335.06 114.22C335.151 114.311 335.196 114.605 335.196 115.104V118.912C335.196 119.411 335.151 119.728 335.06 119.864C334.969 119.955 334.652 120 334.108 120H312.008ZM341.492 120C340.994 120 340.744 119.751 340.744 119.252V74.984C340.744 74.4853 340.994 74.236 341.492 74.236H363.796C364.25 74.236 364.522 74.2813 364.612 74.372C364.703 74.4173 364.748 74.6667 364.748 75.12V79.268C364.748 79.7667 364.68 80.0613 364.544 80.152C364.454 80.2427 364.204 80.288 363.796 80.288H349.04C348.768 80.288 348.61 80.3107 348.564 80.356C348.519 80.4013 348.496 80.5373 348.496 80.764V93.412C348.496 93.6387 348.519 93.7973 348.564 93.888C348.655 93.9333 348.791 93.956 348.972 93.956H360.736C361.235 93.956 361.53 94.024 361.62 94.16C361.711 94.2507 361.756 94.568 361.756 95.112V98.852C361.756 99.3507 361.688 99.668 361.552 99.804C361.462 99.8947 361.19 99.94 360.736 99.94H348.972C348.746 99.94 348.61 99.9627 348.564 100.008C348.519 100.053 348.496 100.189 348.496 100.416V113.404C348.496 113.631 348.519 113.789 348.564 113.88C348.61 113.971 348.746 114.016 348.972 114.016H363.66C364.204 114.016 364.522 114.084 364.612 114.22C364.703 114.311 364.748 114.605 364.748 115.104V118.912C364.748 119.411 364.68 119.728 364.544 119.864C364.408 119.955 364.114 120 363.66 120H341.492Z" fill="#11053C"/>
</g>
<defs>
<clipPath id="clip0_81_489">
<rect width="365" height="160" fill="white"/>
</clipPath>
<clipPath id="clip1_81_489">
<rect width="57" height="120" fill="white"/>
</clipPath>
</defs>
</svg>
