<svg width="540" height="120" viewBox="0 0 540 120" fill="none" xmlns="http://www.w3.org/2000/svg">
<g clip-path="url(#clip0_96_1534)">
<path d="M124.6 69.73C124.6 74.4233 123.757 78.75 122.07 82.71C120.383 86.5967 117.853 89.75 114.48 92.17C111.18 94.5167 107.073 95.69 102.16 95.69H95.12C94.7533 95.69 94.4967 95.7633 94.35 95.91C94.2767 96.0567 94.24 96.2767 94.24 96.57V118.79C94.24 119.597 93.7633 120 92.81 120H82.91C82.1033 120 81.7 119.597 81.7 118.79V47.18C81.7 46.3733 82.1033 45.97 82.91 45.97H100.95C109.31 45.97 115.323 47.9133 118.99 51.8C122.73 55.6133 124.6 61.59 124.6 69.73ZM94.24 85.46C94.24 86.12 94.4967 86.45 95.01 86.45H100.84C104.507 86.45 107.367 84.9833 109.42 82.05C111.473 79.1167 112.5 75.0467 112.5 69.84C112.427 64.34 111.363 60.4533 109.31 58.18C107.33 55.9067 104.433 54.77 100.62 54.77H95.01C94.7167 54.77 94.4967 54.8433 94.35 54.99C94.2767 55.0633 94.24 55.32 94.24 55.76V85.46ZM148.378 118.79C148.378 119.597 147.938 120 147.058 120H137.158C136.351 120 135.948 119.597 135.948 118.79V47.18C135.948 46.3733 136.351 45.97 137.158 45.97H147.058C147.938 45.97 148.378 46.3733 148.378 47.18V118.79ZM205.243 93.71C205.39 94.0033 205.646 94.15 206.013 94.15C206.38 94.15 206.563 93.93 206.563 93.49C206.71 91.1433 206.783 88.54 206.783 85.68C206.783 82.7467 206.746 79.6667 206.673 76.44C206.673 73.2133 206.6 69.9133 206.453 66.54C206.38 63.1667 206.233 59.8667 206.013 56.64C205.793 53.34 205.5 50.2233 205.133 47.29C205.06 46.41 205.28 45.97 205.793 45.97H215.803C216.243 45.97 216.61 46.08 216.903 46.3C217.27 46.52 217.49 46.8133 217.563 47.18C218.076 49.8933 218.48 53.1933 218.773 57.08C219.066 60.8933 219.25 65.0733 219.323 69.62C219.396 74.1667 219.396 78.8233 219.323 83.59C219.323 88.2833 219.213 92.8667 218.993 97.34C218.846 101.813 218.663 105.92 218.443 109.66C218.223 113.327 217.966 116.37 217.673 118.79C217.6 119.377 217.38 119.743 217.013 119.89C216.646 119.963 216.243 120 215.803 120H209.313C208.8 120 208.286 119.487 207.773 118.46L176.973 71.82C176.9 71.5267 176.716 71.38 176.423 71.38C176.13 71.38 175.983 71.5633 175.983 71.93C175.91 75.67 175.836 79.3733 175.763 83.04C175.763 86.6333 175.763 90.1533 175.763 93.6C175.836 96.9733 175.91 100.2 175.983 103.28C176.13 106.36 176.276 109.22 176.423 111.86C176.643 114.427 176.9 116.737 177.193 118.79C177.193 119.597 176.936 120 176.423 120H166.523C166.156 120 165.753 119.963 165.313 119.89C164.946 119.743 164.726 119.377 164.653 118.79C164.36 116.297 164.103 113.18 163.883 109.44C163.663 105.7 163.48 101.593 163.333 97.12C163.186 92.6467 163.113 88.0633 163.113 83.37C163.113 78.6033 163.15 73.9833 163.223 69.51C163.37 64.9633 163.553 60.7833 163.773 56.97C164.066 53.0833 164.47 49.82 164.983 47.18C165.056 46.8133 165.276 46.52 165.643 46.3C166.01 46.08 166.376 45.97 166.743 45.97H173.013C173.526 45.97 173.93 46.2633 174.223 46.85L205.243 93.71ZM235.342 120C234.535 120 234.132 119.597 234.132 118.79V47.18C234.132 46.3733 234.535 45.97 235.342 45.97H271.422C272.155 45.97 272.595 46.0433 272.742 46.19C272.888 46.2633 272.962 46.6667 272.962 47.4V54.11C272.962 54.9167 272.852 55.3933 272.632 55.54C272.485 55.6867 272.082 55.76 271.422 55.76H247.552C247.112 55.76 246.855 55.7967 246.782 55.87C246.708 55.9433 246.672 56.1633 246.672 56.53V76.99C246.672 77.3567 246.708 77.6133 246.782 77.76C246.928 77.8333 247.148 77.87 247.442 77.87H266.472C267.278 77.87 267.755 77.98 267.902 78.2C268.048 78.3467 268.122 78.86 268.122 79.74V85.79C268.122 86.5967 268.012 87.11 267.792 87.33C267.645 87.4767 267.205 87.55 266.472 87.55H247.442C247.075 87.55 246.855 87.5867 246.782 87.66C246.708 87.7333 246.672 87.9533 246.672 88.32V109.33C246.672 109.697 246.708 109.953 246.782 110.1C246.855 110.247 247.075 110.32 247.442 110.32H271.202C272.082 110.32 272.595 110.43 272.742 110.65C272.888 110.797 272.962 111.273 272.962 112.08V118.24C272.962 119.047 272.852 119.56 272.632 119.78C272.412 119.927 271.935 120 271.202 120H235.342ZM280.128 120C279.541 120 279.175 119.78 279.028 119.34C278.955 118.9 279.028 118.057 279.248 116.81C279.688 113.51 280.421 109.513 281.448 104.82C282.475 100.053 283.685 95.03 285.078 89.75C286.471 84.47 287.975 79.19 289.588 73.91C291.201 68.63 292.851 63.7167 294.538 59.17C296.225 54.6233 297.838 50.81 299.378 47.73C299.671 47.2167 299.965 46.8133 300.258 46.52C300.625 46.1533 301.028 45.97 301.468 45.97H311.478C311.918 46.1167 312.321 46.3 312.688 46.52C313.055 46.74 313.385 47.18 313.678 47.84C315.218 50.7733 316.795 54.55 318.408 59.17C320.095 63.7167 321.745 68.6667 323.358 74.02C324.971 79.3 326.475 84.6167 327.868 89.97C329.335 95.25 330.581 100.237 331.608 104.93C332.635 109.623 333.368 113.583 333.808 116.81C334.028 118.057 334.065 118.9 333.918 119.34C333.845 119.78 333.478 120 332.818 120H323.138C322.625 120 322.258 119.89 322.038 119.67C321.891 119.377 321.671 118.643 321.378 117.47C321.085 115.637 320.681 113.51 320.168 111.09C319.728 108.67 319.288 106.433 318.848 104.38C318.775 103.867 318.665 103.573 318.518 103.5C318.371 103.353 318.041 103.28 317.528 103.28H295.418C294.905 103.28 294.575 103.353 294.428 103.5C294.355 103.573 294.245 103.867 294.098 104.38C293.658 106.433 293.181 108.67 292.668 111.09C292.228 113.51 291.861 115.637 291.568 117.47C291.348 118.643 291.128 119.377 290.908 119.67C290.761 119.89 290.431 120 289.918 120H280.128ZM298.058 93.6H314.888C315.328 93.6 315.585 93.5267 315.658 93.38C315.805 93.16 315.805 92.7567 315.658 92.17C314.485 87.6233 313.275 82.9667 312.028 78.2C310.781 73.4333 309.388 69.0333 307.848 65C307.701 64.4867 307.445 64.23 307.078 64.23H305.868C305.501 64.23 305.208 64.5233 304.988 65.11C304.255 67.31 303.411 69.95 302.458 73.03C301.505 76.0367 300.588 79.2267 299.708 82.6C298.828 85.9733 297.985 89.2367 297.178 92.39C297.105 92.7567 297.105 93.05 297.178 93.27C297.251 93.49 297.545 93.6 298.058 93.6ZM387.354 69.73C387.354 74.4233 386.511 78.75 384.824 82.71C383.137 86.5967 380.607 89.75 377.234 92.17C373.934 94.5167 369.827 95.69 364.914 95.69H357.874C357.507 95.69 357.251 95.7633 357.104 95.91C357.031 96.0567 356.994 96.2767 356.994 96.57V118.79C356.994 119.597 356.517 120 355.564 120H345.664C344.857 120 344.454 119.597 344.454 118.79V47.18C344.454 46.3733 344.857 45.97 345.664 45.97H363.704C372.064 45.97 378.077 47.9133 381.744 51.8C385.484 55.6133 387.354 61.59 387.354 69.73ZM356.994 85.46C356.994 86.12 357.251 86.45 357.764 86.45H363.594C367.261 86.45 370.121 84.9833 372.174 82.05C374.227 79.1167 375.254 75.0467 375.254 69.84C375.181 64.34 374.117 60.4533 372.064 58.18C370.084 55.9067 367.187 54.77 363.374 54.77H357.764C357.471 54.77 357.251 54.8433 357.104 54.99C357.031 55.0633 356.994 55.32 356.994 55.76V85.46ZM441.602 69.73C441.602 74.4233 440.759 78.75 439.072 82.71C437.385 86.5967 434.855 89.75 431.482 92.17C428.182 94.5167 424.075 95.69 419.162 95.69H412.122C411.755 95.69 411.499 95.7633 411.352 95.91C411.279 96.0567 411.242 96.2767 411.242 96.57V118.79C411.242 119.597 410.765 120 409.812 120H399.912C399.105 120 398.702 119.597 398.702 118.79V47.18C398.702 46.3733 399.105 45.97 399.912 45.97H417.952C426.312 45.97 432.325 47.9133 435.992 51.8C439.732 55.6133 441.602 61.59 441.602 69.73ZM411.242 85.46C411.242 86.12 411.499 86.45 412.012 86.45H417.842C421.509 86.45 424.369 84.9833 426.422 82.05C428.475 79.1167 429.502 75.0467 429.502 69.84C429.429 64.34 428.365 60.4533 426.312 58.18C424.332 55.9067 421.435 54.77 417.622 54.77H412.012C411.719 54.77 411.499 54.8433 411.352 54.99C411.279 55.0633 411.242 55.32 411.242 55.76V85.46ZM454.16 120C453.353 120 452.95 119.597 452.95 118.79V47.18C452.95 46.3733 453.353 45.97 454.16 45.97H463.84C464.5 45.97 464.903 46.08 465.05 46.3C465.27 46.52 465.38 46.9233 465.38 47.51V109.33C465.38 109.697 465.417 109.953 465.49 110.1C465.563 110.247 465.82 110.32 466.26 110.32H490.02C490.827 110.32 491.303 110.43 491.45 110.65C491.597 110.797 491.67 111.273 491.67 112.08V118.24C491.67 119.047 491.597 119.56 491.45 119.78C491.303 119.927 490.79 120 489.91 120H454.16ZM501.855 120C501.049 120 500.645 119.597 500.645 118.79V47.18C500.645 46.3733 501.049 45.97 501.855 45.97H537.935C538.669 45.97 539.109 46.0433 539.255 46.19C539.402 46.2633 539.475 46.6667 539.475 47.4V54.11C539.475 54.9167 539.365 55.3933 539.145 55.54C538.999 55.6867 538.595 55.76 537.935 55.76H514.065C513.625 55.76 513.369 55.7967 513.295 55.87C513.222 55.9433 513.185 56.1633 513.185 56.53V76.99C513.185 77.3567 513.222 77.6133 513.295 77.76C513.442 77.8333 513.662 77.87 513.955 77.87H532.985C533.792 77.87 534.269 77.98 534.415 78.2C534.562 78.3467 534.635 78.86 534.635 79.74V85.79C534.635 86.5967 534.525 87.11 534.305 87.33C534.159 87.4767 533.719 87.55 532.985 87.55H513.955C513.589 87.55 513.369 87.5867 513.295 87.66C513.222 87.7333 513.185 87.9533 513.185 88.32V109.33C513.185 109.697 513.222 109.953 513.295 110.1C513.369 110.247 513.589 110.32 513.955 110.32H537.715C538.595 110.32 539.109 110.43 539.255 110.65C539.402 110.797 539.475 111.273 539.475 112.08V118.24C539.475 119.047 539.365 119.56 539.145 119.78C538.925 119.927 538.449 120 537.715 120H501.855Z" fill="#FDFDFE"/>
<path d="M81.4 20.32C81.4 18.5333 81.64 16.9333 82.12 15.52C82.6267 14.08 83.4933 12.9467 84.72 12.12C85.9733 11.2933 87.7333 10.88 90 10.88C91.04 10.88 92.0667 10.9733 93.08 11.16C94.12 11.32 95.0267 11.5467 95.8 11.84C96.3867 12.0533 96.7467 12.3067 96.88 12.6C97.0133 12.8667 97.12 13.32 97.2 13.96C97.44 16.0667 97.56 18.4 97.56 20.96C97.5867 23.4933 97.4533 26.0267 97.16 28.56C96.8667 30.88 96.0133 32.5733 94.6 33.64C93.1867 34.7067 91.2533 35.24 88.8 35.24C87.8133 35.24 86.7467 35.0933 85.6 34.8C84.4533 34.5333 83.3733 34.04 82.36 33.32C82.2267 33.2133 82.12 33.08 82.04 32.92C81.9867 32.76 82.0133 32.6 82.12 32.44C82.2267 32.28 82.3867 32 82.6 31.6C82.84 31.2267 83.0133 30.96 83.12 30.8C83.2533 30.5067 83.3733 30.3467 83.48 30.32C83.6133 30.32 83.7867 30.4 84 30.56C84.32 30.7733 84.7467 30.9867 85.28 31.2C85.8133 31.4133 86.3733 31.6 86.96 31.76C87.5467 31.92 88.0533 32 88.48 32C89.0133 32 89.56 31.9067 90.12 31.72C90.7067 31.56 91.2267 31.2667 91.68 30.84C92.1333 30.44 92.4133 29.84 92.52 29.04C92.52 29.0133 92.52 28.9867 92.52 28.96C92.5467 28.9067 92.56 28.8667 92.56 28.84C92.5867 28.6533 92.56 28.52 92.48 28.44C92.4 28.3333 92.2267 28.3067 91.96 28.36C91.6667 28.44 91.2667 28.5067 90.76 28.56C90.28 28.6133 89.8133 28.64 89.36 28.64C87.8667 28.64 86.5067 28.3333 85.28 27.72C84.08 27.1067 83.12 26.1733 82.4 24.92C81.7067 23.6667 81.3733 22.1333 81.4 20.32ZM86 19.64C86 20.7333 86.1067 21.72 86.32 22.6C86.56 23.4533 86.9467 24.1333 87.48 24.64C88.04 25.12 88.8 25.36 89.76 25.36C90.2133 25.36 90.6533 25.3333 91.08 25.28C91.5067 25.2267 91.88 25.1333 92.2 25C92.6533 24.8133 92.8933 24.5067 92.92 24.08C92.9733 23.4933 93 22.7867 93 21.96C93 21.1333 92.9867 20.2933 92.96 19.44C92.96 18.56 92.9467 17.76 92.92 17.04C92.8933 16.2933 92.8533 15.7067 92.8 15.28C92.8 15.12 92.76 14.9333 92.68 14.72C92.6267 14.5067 92.5067 14.36 92.32 14.28C92.0533 14.1467 91.7067 14.04 91.28 13.96C90.8533 13.88 90.3733 13.84 89.84 13.84C88.88 13.84 88.12 14.0933 87.56 14.6C87 15.08 86.6 15.76 86.36 16.64C86.12 17.4933 86 18.4933 86 19.64ZM107.697 20.52C107.697 19.2667 107.817 18.0667 108.057 16.92C108.324 15.7733 108.764 14.7467 109.377 13.84C109.99 12.9067 110.83 12.1733 111.897 11.64C112.99 11.1067 114.364 10.84 116.017 10.84C117.75 10.84 119.124 11.08 120.137 11.56C121.177 12.04 121.95 12.6933 122.457 13.52C122.99 14.32 123.337 15.2133 123.497 16.2C123.684 17.16 123.777 18.12 123.777 19.08C123.777 20.1733 123.657 20.88 123.417 21.2C123.177 21.52 122.817 21.68 122.337 21.68H112.537C112.404 21.68 112.297 21.7067 112.217 21.76C112.164 21.8133 112.137 21.9467 112.137 22.16C112.137 23.0933 112.324 23.9333 112.697 24.68C113.097 25.4267 113.657 26.0133 114.377 26.44C115.124 26.8667 116.017 27.08 117.057 27.08C117.937 27.08 118.804 26.9467 119.657 26.68C120.51 26.4133 121.164 26.16 121.617 25.92C121.91 25.76 122.137 25.6667 122.297 25.64C122.457 25.5867 122.63 25.7467 122.817 26.12L123.577 27.56C123.71 27.8267 123.737 28.0133 123.657 28.12C123.604 28.2267 123.444 28.36 123.177 28.52C122.297 29.1333 121.217 29.5867 119.937 29.88C118.657 30.1467 117.364 30.28 116.057 30.28C114.35 30.28 112.95 30.0267 111.857 29.52C110.764 29.0133 109.91 28.32 109.297 27.44C108.71 26.5333 108.297 25.4933 108.057 24.32C107.817 23.12 107.697 21.8533 107.697 20.52ZM119.297 18.36C119.297 17.56 119.19 16.8533 118.977 16.24C118.79 15.6 118.444 15.1067 117.937 14.76C117.457 14.3867 116.79 14.2 115.937 14.2C115.27 14.2 114.697 14.3333 114.217 14.6C113.764 14.84 113.39 15.1733 113.097 15.6C112.83 16 112.617 16.44 112.457 16.92C112.297 17.4 112.19 17.8667 112.137 18.32C112.137 18.6933 112.15 18.9333 112.177 19.04C112.204 19.12 112.324 19.16 112.537 19.16H118.777C119.017 19.16 119.164 19.12 119.217 19.04C119.297 18.96 119.324 18.7333 119.297 18.36ZM134.609 30C134.262 30 134.089 29.8533 134.089 29.56C134.089 26.76 134.089 23.9733 134.089 21.2C134.089 18.4 134.089 15.6133 134.089 12.84C134.089 12.5733 134.169 12.3867 134.329 12.28C134.489 12.1467 134.822 12 135.329 11.84C135.649 11.7333 136.155 11.6 136.849 11.44C137.542 11.28 138.275 11.1467 139.049 11.04C139.849 10.9067 140.582 10.84 141.249 10.84C143.409 10.84 145.062 11.2533 146.209 12.08C147.355 12.9067 148.142 14 148.569 15.36C149.022 16.72 149.249 18.24 149.249 19.92C149.249 20.9867 149.222 22.08 149.169 23.2C149.142 24.32 149.089 25.4 149.009 26.44C148.955 27.48 148.889 28.3867 148.809 29.16C148.755 29.5867 148.675 29.84 148.569 29.92C148.489 29.9733 148.289 30 147.969 30H145.169C144.849 30 144.622 29.96 144.489 29.88C144.382 29.8 144.342 29.6133 144.369 29.32C144.369 29.1867 144.395 28.76 144.449 28.04C144.502 27.32 144.555 26.4667 144.609 25.48C144.662 24.4667 144.702 23.4667 144.729 22.48C144.755 21.4667 144.769 20.6133 144.769 19.92C144.769 18.5067 144.635 17.4 144.369 16.6C144.102 15.8 143.702 15.24 143.169 14.92C142.635 14.5733 141.955 14.4 141.129 14.4C140.755 14.4 140.395 14.4267 140.049 14.48C139.729 14.5333 139.435 14.6 139.169 14.68C138.955 14.7067 138.782 14.8133 138.649 15C138.542 15.16 138.489 15.44 138.489 15.84C138.489 17.0933 138.489 18.48 138.489 20C138.489 21.52 138.489 23.0933 138.489 24.72C138.489 26.32 138.489 27.9333 138.489 29.56C138.489 29.8533 138.355 30 138.089 30H134.609ZM159.353 20.52C159.353 19.2667 159.473 18.0667 159.713 16.92C159.98 15.7733 160.42 14.7467 161.033 13.84C161.646 12.9067 162.486 12.1733 163.553 11.64C164.646 11.1067 166.02 10.84 167.673 10.84C169.406 10.84 170.78 11.08 171.793 11.56C172.833 12.04 173.606 12.6933 174.113 13.52C174.646 14.32 174.993 15.2133 175.153 16.2C175.34 17.16 175.433 18.12 175.433 19.08C175.433 20.1733 175.313 20.88 175.073 21.2C174.833 21.52 174.473 21.68 173.993 21.68H164.193C164.06 21.68 163.953 21.7067 163.873 21.76C163.82 21.8133 163.793 21.9467 163.793 22.16C163.793 23.0933 163.98 23.9333 164.353 24.68C164.753 25.4267 165.313 26.0133 166.033 26.44C166.78 26.8667 167.673 27.08 168.713 27.08C169.593 27.08 170.46 26.9467 171.313 26.68C172.166 26.4133 172.82 26.16 173.273 25.92C173.566 25.76 173.793 25.6667 173.953 25.64C174.113 25.5867 174.286 25.7467 174.473 26.12L175.233 27.56C175.366 27.8267 175.393 28.0133 175.313 28.12C175.26 28.2267 175.1 28.36 174.833 28.52C173.953 29.1333 172.873 29.5867 171.593 29.88C170.313 30.1467 169.02 30.28 167.713 30.28C166.006 30.28 164.606 30.0267 163.513 29.52C162.42 29.0133 161.566 28.32 160.953 27.44C160.366 26.5333 159.953 25.4933 159.713 24.32C159.473 23.12 159.353 21.8533 159.353 20.52ZM170.953 18.36C170.953 17.56 170.846 16.8533 170.633 16.24C170.446 15.6 170.1 15.1067 169.593 14.76C169.113 14.3867 168.446 14.2 167.593 14.2C166.926 14.2 166.353 14.3333 165.873 14.6C165.42 14.84 165.046 15.1733 164.753 15.6C164.486 16 164.273 16.44 164.113 16.92C163.953 17.4 163.846 17.8667 163.793 18.32C163.793 18.6933 163.806 18.9333 163.833 19.04C163.86 19.12 163.98 19.16 164.193 19.16H170.433C170.673 19.16 170.82 19.12 170.873 19.04C170.953 18.96 170.98 18.7333 170.953 18.36ZM190.785 30C190.572 30 190.412 29.92 190.305 29.76C189.612 28.64 189.012 27.4533 188.505 26.2C187.998 24.92 187.518 23.6533 187.065 22.4C186.292 20.2667 185.692 18.36 185.265 16.68C184.838 15 184.505 13.48 184.265 12.12C184.158 11.4533 184.278 11.12 184.625 11.12H188.265C188.425 11.12 188.558 11.1733 188.665 11.28C188.772 11.36 188.838 11.4667 188.865 11.6C188.945 12.4267 189.092 13.3467 189.305 14.36C189.518 15.3467 189.758 16.4533 190.025 17.68C190.372 19.0667 190.692 20.2667 190.985 21.28C191.305 22.2667 191.612 23.12 191.905 23.84C191.958 24.0533 192.038 24.1467 192.145 24.12C192.278 24.0933 192.372 24 192.425 23.84C192.665 23.3067 192.905 22.6267 193.145 21.8C193.412 20.9467 193.692 19.9067 193.985 18.68C194.305 17.32 194.585 15.9733 194.825 14.64C195.092 13.3067 195.265 12.2133 195.345 11.36C195.372 11.2267 195.452 11.16 195.585 11.16H199.465C199.625 11.16 199.692 11.2533 199.665 11.44C199.425 13.0667 199.078 14.8 198.625 16.64C198.198 18.48 197.638 20.3733 196.945 22.32C196.545 23.52 196.078 24.7467 195.545 26C195.012 27.2533 194.398 28.52 193.705 29.8C193.625 29.96 193.505 30.04 193.345 30.04L190.785 30ZM213.906 5.92C213.906 6.64 213.759 7.18666 213.466 7.56C213.172 7.90667 212.546 8.08 211.586 8.08C210.652 8.08 210.012 7.90667 209.666 7.56C209.346 7.18666 209.186 6.64 209.186 5.92C209.186 5.30667 209.346 4.81333 209.666 4.44C210.012 4.06666 210.652 3.88 211.586 3.88C212.599 3.88 213.239 4.06666 213.506 4.44C213.772 4.81333 213.906 5.30667 213.906 5.92ZM213.786 29.56C213.786 29.8533 213.626 30 213.306 30H209.826C209.532 30 209.386 29.8533 209.386 29.56V11.56C209.386 11.2667 209.532 11.12 209.826 11.12H213.306C213.626 11.12 213.786 11.2667 213.786 11.56V29.56ZM229.785 30C229.572 30 229.412 29.92 229.305 29.76C228.612 28.64 228.012 27.4533 227.505 26.2C226.998 24.92 226.518 23.6533 226.065 22.4C225.292 20.2667 224.692 18.36 224.265 16.68C223.838 15 223.505 13.48 223.265 12.12C223.158 11.4533 223.278 11.12 223.625 11.12H227.265C227.425 11.12 227.558 11.1733 227.665 11.28C227.772 11.36 227.838 11.4667 227.865 11.6C227.945 12.4267 228.092 13.3467 228.305 14.36C228.518 15.3467 228.758 16.4533 229.025 17.68C229.372 19.0667 229.692 20.2667 229.985 21.28C230.305 22.2667 230.612 23.12 230.905 23.84C230.958 24.0533 231.038 24.1467 231.145 24.12C231.278 24.0933 231.372 24 231.425 23.84C231.665 23.3067 231.905 22.6267 232.145 21.8C232.412 20.9467 232.692 19.9067 232.985 18.68C233.305 17.32 233.585 15.9733 233.825 14.64C234.092 13.3067 234.265 12.2133 234.345 11.36C234.372 11.2267 234.452 11.16 234.585 11.16H238.465C238.625 11.16 238.692 11.2533 238.665 11.44C238.425 13.0667 238.078 14.8 237.625 16.64C237.198 18.48 236.638 20.3733 235.945 22.32C235.545 23.52 235.078 24.7467 234.545 26C234.012 27.2533 233.398 28.52 232.705 29.8C232.625 29.96 232.505 30.04 232.345 30.04L229.785 30Z" fill="#FDFDFE"/>
<g clip-path="url(#clip1_96_1534)">
<path d="M53.5834 68.6971L54.5453 67.6944C52.6516 62.1487 49.746 57.3192 46.139 53.605L42.4118 57.4727L53.5834 68.6869V68.6971Z" fill="#FDFDFE"/>
<path d="M40.9306 59.0091L29.875 70.4941L41.0499 81.7126L52.1055 70.2276L40.9306 59.0091Z" fill="#FDFDFE"/>
<path d="M14.1373 57.7183L10.4602 54.0246C6.92336 57.8104 4.09791 62.6705 2.27439 68.2367L3.15609 69.1166L14.1373 57.708V57.7183Z" fill="#FDFDFE"/>
<path d="M15.6458 59.2212L4.66044 70.6332L15.9068 81.9234L26.8921 70.5114L15.6458 59.2212Z" fill="#FDFDFE"/>
<path d="M25.5994 45.8185C20.5497 46.4836 15.8907 48.8677 11.9731 52.5205L15.6201 56.1835L25.5994 45.8185Z" fill="#FDFDFE"/>
<path d="M44.5961 52.1316C40.5883 48.5402 35.8392 46.2585 30.7193 45.7367L40.9089 55.9686L44.6061 52.1316H44.5961Z" fill="#FDFDFE"/>
<path d="M28.1743 46.2046L17.1187 57.6895L28.3651 68.9797L39.4207 57.4947L28.1743 46.2046Z" fill="#FDFDFE"/>
<path d="M41.0729 84.757L30.0875 96.169L41.2767 107.402L52.2621 95.9898L41.0729 84.757Z" fill="#FDFDFE"/>
<path d="M14.4278 83.472L3.17613 72.176L0.671296 74.7851C0.230445 77.3738 0 80.0546 0 82.8172C0 86.1426 0.340657 89.3554 0.961856 92.425L3.42661 94.9011L14.4278 83.4823V83.472Z" fill="#FDFDFE"/>
<path d="M17.604 109.134L28.4249 120C28.4249 120 28.475 120 28.495 120C28.7154 120 28.9358 120 29.1462 119.99L39.7868 108.939L28.6052 97.7046L17.604 109.123V109.134Z" fill="#FDFDFE"/>
<path d="M56.2686 74.4168L53.6135 71.7462L42.5521 83.2367L53.7337 94.4713L56.1183 91.985C56.6894 89.0587 56.99 85.9891 56.99 82.8172C56.99 79.9318 56.7395 77.118 56.2586 74.4168H56.2686Z" fill="#FDFDFE"/>
<path d="M28.392 72.0258L17.4067 83.4378L28.5815 94.6563L39.5669 83.2443L28.392 72.0258Z" fill="#FDFDFE"/>
<path d="M15.9423 84.9685L4.94293 96.3951L16.1178 107.614L27.1172 96.1869L15.9423 84.9685Z" fill="#FDFDFE"/>
<path d="M42.7725 108.909L45.9988 112.152C49.6057 108.479 52.5214 103.701 54.4451 98.1958L53.7537 97.5L42.7725 108.909Z" fill="#FDFDFE"/>
<path d="M12.945 113.973C16.5419 117.033 20.6999 119.069 25.1686 119.744L16.1311 110.668L12.945 113.973Z" fill="#FDFDFE"/>
<path d="M32.4426 119.642C36.8511 118.844 40.929 116.736 44.4558 113.626L41.2897 110.454L32.4426 119.642Z" fill="#FDFDFE"/>
<path d="M3.45667 97.94L2.72526 98.6971C4.70909 104.181 7.69485 108.919 11.3719 112.531L14.6282 109.154L3.45667 97.94Z" fill="#FDFDFE"/>
<path d="M28.1944 42.9536L55.437 15.1228L40.0373 19.3588L43.5941 3.02865L32.9336 15.1228L28.1944 0L23.4553 15.1228L12.7947 3.02865L16.3415 19.3588L0.941818 15.1228L28.1944 42.9536Z" fill="#FDFDFE"/>
</g>
</g>
<defs>
<clipPath id="clip0_96_1534">
<rect width="540" height="120" fill="white"/>
</clipPath>
<clipPath id="clip1_96_1534">
<rect width="57" height="120" fill="white"/>
</clipPath>
</defs>
</svg>
