<svg width="540" height="120" viewBox="0 0 540 120" fill="none" xmlns="http://www.w3.org/2000/svg">
<g clip-path="url(#clip0_81_489)">
<path d="M124.6 69.73C124.6 74.4233 123.757 78.75 122.07 82.71C120.383 86.5967 117.853 89.75 114.48 92.17C111.18 94.5167 107.073 95.69 102.16 95.69H95.12C94.7533 95.69 94.4967 95.7633 94.35 95.91C94.2767 96.0567 94.24 96.2767 94.24 96.57V118.79C94.24 119.597 93.7633 120 92.81 120H82.91C82.1033 120 81.7 119.597 81.7 118.79V47.18C81.7 46.3733 82.1033 45.97 82.91 45.97H100.95C109.31 45.97 115.323 47.9133 118.99 51.8C122.73 55.6133 124.6 61.59 124.6 69.73ZM94.24 85.46C94.24 86.12 94.4967 86.45 95.01 86.45H100.84C104.507 86.45 107.367 84.9833 109.42 82.05C111.473 79.1167 112.5 75.0467 112.5 69.84C112.427 64.34 111.363 60.4533 109.31 58.18C107.33 55.9067 104.433 54.77 100.62 54.77H95.01C94.7167 54.77 94.4967 54.8433 94.35 54.99C94.2767 55.0633 94.24 55.32 94.24 55.76V85.46ZM148.378 118.79C148.378 119.597 147.938 120 147.058 120H137.158C136.351 120 135.948 119.597 135.948 118.79V47.18C135.948 46.3733 136.351 45.97 137.158 45.97H147.058C147.938 45.97 148.378 46.3733 148.378 47.18V118.79ZM205.243 93.71C205.39 94.0033 205.646 94.15 206.013 94.15C206.38 94.15 206.563 93.93 206.563 93.49C206.71 91.1433 206.783 88.54 206.783 85.68C206.783 82.7467 206.746 79.6667 206.673 76.44C206.673 73.2133 206.6 69.9133 206.453 66.54C206.38 63.1667 206.233 59.8667 206.013 56.64C205.793 53.34 205.5 50.2233 205.133 47.29C205.06 46.41 205.28 45.97 205.793 45.97H215.803C216.243 45.97 216.61 46.08 216.903 46.3C217.27 46.52 217.49 46.8133 217.563 47.18C218.076 49.8933 218.48 53.1933 218.773 57.08C219.066 60.8933 219.25 65.0733 219.323 69.62C219.396 74.1667 219.396 78.8233 219.323 83.59C219.323 88.2833 219.213 92.8667 218.993 97.34C218.846 101.813 218.663 105.92 218.443 109.66C218.223 113.327 217.966 116.37 217.673 118.79C217.6 119.377 217.38 119.743 217.013 119.89C216.646 119.963 216.243 120 215.803 120H209.313C208.8 120 208.286 119.487 207.773 118.46L176.973 71.82C176.9 71.5267 176.716 71.38 176.423 71.38C176.13 71.38 175.983 71.5633 175.983 71.93C175.91 75.67 175.836 79.3733 175.763 83.04C175.763 86.6333 175.763 90.1533 175.763 93.6C175.836 96.9733 175.91 100.2 175.983 103.28C176.13 106.36 176.276 109.22 176.423 111.86C176.643 114.427 176.9 116.737 177.193 118.79C177.193 119.597 176.936 120 176.423 120H166.523C166.156 120 165.753 119.963 165.313 119.89C164.946 119.743 164.726 119.377 164.653 118.79C164.36 116.297 164.103 113.18 163.883 109.44C163.663 105.7 163.48 101.593 163.333 97.12C163.186 92.6467 163.113 88.0633 163.113 83.37C163.113 78.6033 163.15 73.9833 163.223 69.51C163.37 64.9633 163.553 60.7833 163.773 56.97C164.066 53.0833 164.47 49.82 164.983 47.18C165.056 46.8133 165.276 46.52 165.643 46.3C166.01 46.08 166.376 45.97 166.743 45.97H173.013C173.526 45.97 173.93 46.2633 174.223 46.85L205.243 93.71ZM235.342 120C234.535 120 234.132 119.597 234.132 118.79V47.18C234.132 46.3733 234.535 45.97 235.342 45.97H271.422C272.155 45.97 272.595 46.0433 272.742 46.19C272.888 46.2633 272.962 46.6667 272.962 47.4V54.11C272.962 54.9167 272.852 55.3933 272.632 55.54C272.485 55.6867 272.082 55.76 271.422 55.76H247.552C247.112 55.76 246.855 55.7967 246.782 55.87C246.708 55.9433 246.672 56.1633 246.672 56.53V76.99C246.672 77.3567 246.708 77.6133 246.782 77.76C246.928 77.8333 247.148 77.87 247.442 77.87H266.472C267.278 77.87 267.755 77.98 267.902 78.2C268.048 78.3467 268.122 78.86 268.122 79.74V85.79C268.122 86.5967 268.012 87.11 267.792 87.33C267.645 87.4767 267.205 87.55 266.472 87.55H247.442C247.075 87.55 246.855 87.5867 246.782 87.66C246.708 87.7333 246.672 87.9533 246.672 88.32V109.33C246.672 109.697 246.708 109.953 246.782 110.1C246.855 110.247 247.075 110.32 247.442 110.32H271.202C272.082 110.32 272.595 110.43 272.742 110.65C272.888 110.797 272.962 111.273 272.962 112.08V118.24C272.962 119.047 272.852 119.56 272.632 119.78C272.412 119.927 271.935 120 271.202 120H235.342ZM280.128 120C279.541 120 279.175 119.78 279.028 119.34C278.955 118.9 279.028 118.057 279.248 116.81C279.688 113.51 280.421 109.513 281.448 104.82C282.475 100.053 283.685 95.03 285.078 89.75C286.471 84.47 287.975 79.19 289.588 73.91C291.201 68.63 292.851 63.7167 294.538 59.17C296.225 54.6233 297.838 50.81 299.378 47.73C299.671 47.2167 299.965 46.8133 300.258 46.52C300.625 46.1533 301.028 45.97 301.468 45.97H311.478C311.918 46.1167 312.321 46.3 312.688 46.52C313.055 46.74 313.385 47.18 313.678 47.84C315.218 50.7733 316.795 54.55 318.408 59.17C320.095 63.7167 321.745 68.6667 323.358 74.02C324.971 79.3 326.475 84.6167 327.868 89.97C329.335 95.25 330.581 100.237 331.608 104.93C332.635 109.623 333.368 113.583 333.808 116.81C334.028 118.057 334.065 118.9 333.918 119.34C333.845 119.78 333.478 120 332.818 120H323.138C322.625 120 322.258 119.89 322.038 119.67C321.891 119.377 321.671 118.643 321.378 117.47C321.085 115.637 320.681 113.51 320.168 111.09C319.728 108.67 319.288 106.433 318.848 104.38C318.775 103.867 318.665 103.573 318.518 103.5C318.371 103.353 318.041 103.28 317.528 103.28H295.418C294.905 103.28 294.575 103.353 294.428 103.5C294.355 103.573 294.245 103.867 294.098 104.38C293.658 106.433 293.181 108.67 292.668 111.09C292.228 113.51 291.861 115.637 291.568 117.47C291.348 118.643 291.128 119.377 290.908 119.67C290.761 119.89 290.431 120 289.918 120H280.128ZM298.058 93.6H314.888C315.328 93.6 315.585 93.5267 315.658 93.38C315.805 93.16 315.805 92.7567 315.658 92.17C314.485 87.6233 313.275 82.9667 312.028 78.2C310.781 73.4333 309.388 69.0333 307.848 65C307.701 64.4867 307.445 64.23 307.078 64.23H305.868C305.501 64.23 305.208 64.5233 304.988 65.11C304.255 67.31 303.411 69.95 302.458 73.03C301.505 76.0367 300.588 79.2267 299.708 82.6C298.828 85.9733 297.985 89.2367 297.178 92.39C297.105 92.7567 297.105 93.05 297.178 93.27C297.251 93.49 297.545 93.6 298.058 93.6ZM387.354 69.73C387.354 74.4233 386.511 78.75 384.824 82.71C383.137 86.5967 380.607 89.75 377.234 92.17C373.934 94.5167 369.827 95.69 364.914 95.69H357.874C357.507 95.69 357.251 95.7633 357.104 95.91C357.031 96.0567 356.994 96.2767 356.994 96.57V118.79C356.994 119.597 356.517 120 355.564 120H345.664C344.857 120 344.454 119.597 344.454 118.79V47.18C344.454 46.3733 344.857 45.97 345.664 45.97H363.704C372.064 45.97 378.077 47.9133 381.744 51.8C385.484 55.6133 387.354 61.59 387.354 69.73ZM356.994 85.46C356.994 86.12 357.251 86.45 357.764 86.45H363.594C367.261 86.45 370.121 84.9833 372.174 82.05C374.227 79.1167 375.254 75.0467 375.254 69.84C375.181 64.34 374.117 60.4533 372.064 58.18C370.084 55.9067 367.187 54.77 363.374 54.77H357.764C357.471 54.77 357.251 54.8433 357.104 54.99C357.031 55.0633 356.994 55.32 356.994 55.76V85.46ZM441.602 69.73C441.602 74.4233 440.759 78.75 439.072 82.71C437.385 86.5967 434.855 89.75 431.482 92.17C428.182 94.5167 424.075 95.69 419.162 95.69H412.122C411.755 95.69 411.499 95.7633 411.352 95.91C411.279 96.0567 411.242 96.2767 411.242 96.57V118.79C411.242 119.597 410.765 120 409.812 120H399.912C399.105 120 398.702 119.597 398.702 118.79V47.18C398.702 46.3733 399.105 45.97 399.912 45.97H417.952C426.312 45.97 432.325 47.9133 435.992 51.8C439.732 55.6133 441.602 61.59 441.602 69.73ZM411.242 85.46C411.242 86.12 411.499 86.45 412.012 86.45H417.842C421.509 86.45 424.369 84.9833 426.422 82.05C428.475 79.1167 429.502 75.0467 429.502 69.84C429.429 64.34 428.365 60.4533 426.312 58.18C424.332 55.9067 421.435 54.77 417.622 54.77H412.012C411.719 54.77 411.499 54.8433 411.352 54.99C411.279 55.0633 411.242 55.32 411.242 55.76V85.46ZM454.16 120C453.353 120 452.95 119.597 452.95 118.79V47.18C452.95 46.3733 453.353 45.97 454.16 45.97H463.84C464.5 45.97 464.903 46.08 465.05 46.3C465.27 46.52 465.38 46.9233 465.38 47.51V109.33C465.38 109.697 465.417 109.953 465.49 110.1C465.563 110.247 465.82 110.32 466.26 110.32H490.02C490.827 110.32 491.303 110.43 491.45 110.65C491.597 110.797 491.67 111.273 491.67 112.08V118.24C491.67 119.047 491.597 119.56 491.45 119.78C491.303 119.927 490.79 120 489.91 120H454.16ZM501.855 120C501.049 120 500.645 119.597 500.645 118.79V47.18C500.645 46.3733 501.049 45.97 501.855 45.97H537.935C538.669 45.97 539.109 46.0433 539.255 46.19C539.402 46.2633 539.475 46.6667 539.475 47.4V54.11C539.475 54.9167 539.365 55.3933 539.145 55.54C538.999 55.6867 538.595 55.76 537.935 55.76H514.065C513.625 55.76 513.369 55.7967 513.295 55.87C513.222 55.9433 513.185 56.1633 513.185 56.53V76.99C513.185 77.3567 513.222 77.6133 513.295 77.76C513.442 77.8333 513.662 77.87 513.955 77.87H532.985C533.792 77.87 534.269 77.98 534.415 78.2C534.562 78.3467 534.635 78.86 534.635 79.74V85.79C534.635 86.5967 534.525 87.11 534.305 87.33C534.159 87.4767 533.719 87.55 532.985 87.55H513.955C513.589 87.55 513.369 87.5867 513.295 87.66C513.222 87.7333 513.185 87.9533 513.185 88.32V109.33C513.185 109.697 513.222 109.953 513.295 110.1C513.369 110.247 513.589 110.32 513.955 110.32H537.715C538.595 110.32 539.109 110.43 539.255 110.65C539.402 110.797 539.475 111.273 539.475 112.08V118.24C539.475 119.047 539.365 119.56 539.145 119.78C538.925 119.927 538.449 120 537.715 120H501.855Z" fill="#11053C"/>
<path d="M82.4 21.32C82.4 19.5333 82.64 17.9333 83.12 16.52C83.6267 15.08 84.4933 13.9467 85.72 13.12C86.9733 12.2933 88.7333 11.88 91 11.88C92.04 11.88 93.0667 11.9733 94.08 12.16C95.12 12.32 96.0267 12.5467 96.8 12.84C97.3867 13.0533 97.7467 13.3067 97.88 13.6C98.0133 13.8667 98.12 14.32 98.2 14.96C98.44 17.0667 98.56 19.4 98.56 21.96C98.5867 24.4933 98.4533 27.0267 98.16 29.56C97.8667 31.88 97.0133 33.5733 95.6 34.64C94.1867 35.7067 92.2533 36.24 89.8 36.24C88.8133 36.24 87.7467 36.0933 86.6 35.8C85.4533 35.5333 84.3733 35.04 83.36 34.32C83.2267 34.2133 83.12 34.08 83.04 33.92C82.9867 33.76 83.0133 33.6 83.12 33.44C83.2267 33.28 83.3867 33 83.6 32.6C83.84 32.2267 84.0133 31.96 84.12 31.8C84.2533 31.5067 84.3733 31.3467 84.48 31.32C84.6133 31.32 84.7867 31.4 85 31.56C85.32 31.7733 85.7467 31.9867 86.28 32.2C86.8133 32.4133 87.3733 32.6 87.96 32.76C88.5467 32.92 89.0533 33 89.48 33C90.0133 33 90.56 32.9067 91.12 32.72C91.7067 32.56 92.2267 32.2667 92.68 31.84C93.1333 31.44 93.4133 30.84 93.52 30.04C93.52 30.0133 93.52 29.9867 93.52 29.96C93.5467 29.9067 93.56 29.8667 93.56 29.84C93.5867 29.6533 93.56 29.52 93.48 29.44C93.4 29.3333 93.2267 29.3067 92.96 29.36C92.6667 29.44 92.2667 29.5067 91.76 29.56C91.28 29.6133 90.8133 29.64 90.36 29.64C88.8667 29.64 87.5067 29.3333 86.28 28.72C85.08 28.1067 84.12 27.1733 83.4 25.92C82.7067 24.6667 82.3733 23.1333 82.4 21.32ZM87 20.64C87 21.7333 87.1067 22.72 87.32 23.6C87.56 24.4533 87.9467 25.1333 88.48 25.64C89.04 26.12 89.8 26.36 90.76 26.36C91.2133 26.36 91.6533 26.3333 92.08 26.28C92.5067 26.2267 92.88 26.1333 93.2 26C93.6533 25.8133 93.8933 25.5067 93.92 25.08C93.9733 24.4933 94 23.7867 94 22.96C94 22.1333 93.9867 21.2933 93.96 20.44C93.96 19.56 93.9467 18.76 93.92 18.04C93.8933 17.2933 93.8533 16.7067 93.8 16.28C93.8 16.12 93.76 15.9333 93.68 15.72C93.6267 15.5067 93.5067 15.36 93.32 15.28C93.0533 15.1467 92.7067 15.04 92.28 14.96C91.8533 14.88 91.3733 14.84 90.84 14.84C89.88 14.84 89.12 15.0933 88.56 15.6C88 16.08 87.6 16.76 87.36 17.64C87.12 18.4933 87 19.4933 87 20.64ZM108.697 21.52C108.697 20.2667 108.817 19.0667 109.057 17.92C109.324 16.7733 109.764 15.7467 110.377 14.84C110.99 13.9067 111.83 13.1733 112.897 12.64C113.99 12.1067 115.364 11.84 117.017 11.84C118.75 11.84 120.124 12.08 121.137 12.56C122.177 13.04 122.95 13.6933 123.457 14.52C123.99 15.32 124.337 16.2133 124.497 17.2C124.684 18.16 124.777 19.12 124.777 20.08C124.777 21.1733 124.657 21.88 124.417 22.2C124.177 22.52 123.817 22.68 123.337 22.68H113.537C113.404 22.68 113.297 22.7067 113.217 22.76C113.164 22.8133 113.137 22.9467 113.137 23.16C113.137 24.0933 113.324 24.9333 113.697 25.68C114.097 26.4267 114.657 27.0133 115.377 27.44C116.124 27.8667 117.017 28.08 118.057 28.08C118.937 28.08 119.804 27.9467 120.657 27.68C121.51 27.4133 122.164 27.16 122.617 26.92C122.91 26.76 123.137 26.6667 123.297 26.64C123.457 26.5867 123.63 26.7467 123.817 27.12L124.577 28.56C124.71 28.8267 124.737 29.0133 124.657 29.12C124.604 29.2267 124.444 29.36 124.177 29.52C123.297 30.1333 122.217 30.5867 120.937 30.88C119.657 31.1467 118.364 31.28 117.057 31.28C115.35 31.28 113.95 31.0267 112.857 30.52C111.764 30.0133 110.91 29.32 110.297 28.44C109.71 27.5333 109.297 26.4933 109.057 25.32C108.817 24.12 108.697 22.8533 108.697 21.52ZM120.297 19.36C120.297 18.56 120.19 17.8533 119.977 17.24C119.79 16.6 119.444 16.1067 118.937 15.76C118.457 15.3867 117.79 15.2 116.937 15.2C116.27 15.2 115.697 15.3333 115.217 15.6C114.764 15.84 114.39 16.1733 114.097 16.6C113.83 17 113.617 17.44 113.457 17.92C113.297 18.4 113.19 18.8667 113.137 19.32C113.137 19.6933 113.15 19.9333 113.177 20.04C113.204 20.12 113.324 20.16 113.537 20.16H119.777C120.017 20.16 120.164 20.12 120.217 20.04C120.297 19.96 120.324 19.7333 120.297 19.36ZM135.609 31C135.262 31 135.089 30.8533 135.089 30.56C135.089 27.76 135.089 24.9733 135.089 22.2C135.089 19.4 135.089 16.6133 135.089 13.84C135.089 13.5733 135.169 13.3867 135.329 13.28C135.489 13.1467 135.822 13 136.329 12.84C136.649 12.7333 137.155 12.6 137.849 12.44C138.542 12.28 139.275 12.1467 140.049 12.04C140.849 11.9067 141.582 11.84 142.249 11.84C144.409 11.84 146.062 12.2533 147.209 13.08C148.355 13.9067 149.142 15 149.569 16.36C150.022 17.72 150.249 19.24 150.249 20.92C150.249 21.9867 150.222 23.08 150.169 24.2C150.142 25.32 150.089 26.4 150.009 27.44C149.955 28.48 149.889 29.3867 149.809 30.16C149.755 30.5867 149.675 30.84 149.569 30.92C149.489 30.9733 149.289 31 148.969 31H146.169C145.849 31 145.622 30.96 145.489 30.88C145.382 30.8 145.342 30.6133 145.369 30.32C145.369 30.1867 145.395 29.76 145.449 29.04C145.502 28.32 145.555 27.4667 145.609 26.48C145.662 25.4667 145.702 24.4667 145.729 23.48C145.755 22.4667 145.769 21.6133 145.769 20.92C145.769 19.5067 145.635 18.4 145.369 17.6C145.102 16.8 144.702 16.24 144.169 15.92C143.635 15.5733 142.955 15.4 142.129 15.4C141.755 15.4 141.395 15.4267 141.049 15.48C140.729 15.5333 140.435 15.6 140.169 15.68C139.955 15.7067 139.782 15.8133 139.649 16C139.542 16.16 139.489 16.44 139.489 16.84C139.489 18.0933 139.489 19.48 139.489 21C139.489 22.52 139.489 24.0933 139.489 25.72C139.489 27.32 139.489 28.9333 139.489 30.56C139.489 30.8533 139.355 31 139.089 31H135.609ZM160.353 21.52C160.353 20.2667 160.473 19.0667 160.713 17.92C160.98 16.7733 161.42 15.7467 162.033 14.84C162.646 13.9067 163.486 13.1733 164.553 12.64C165.646 12.1067 167.02 11.84 168.673 11.84C170.406 11.84 171.78 12.08 172.793 12.56C173.833 13.04 174.606 13.6933 175.113 14.52C175.646 15.32 175.993 16.2133 176.153 17.2C176.34 18.16 176.433 19.12 176.433 20.08C176.433 21.1733 176.313 21.88 176.073 22.2C175.833 22.52 175.473 22.68 174.993 22.68H165.193C165.06 22.68 164.953 22.7067 164.873 22.76C164.82 22.8133 164.793 22.9467 164.793 23.16C164.793 24.0933 164.98 24.9333 165.353 25.68C165.753 26.4267 166.313 27.0133 167.033 27.44C167.78 27.8667 168.673 28.08 169.713 28.08C170.593 28.08 171.46 27.9467 172.313 27.68C173.166 27.4133 173.82 27.16 174.273 26.92C174.566 26.76 174.793 26.6667 174.953 26.64C175.113 26.5867 175.286 26.7467 175.473 27.12L176.233 28.56C176.366 28.8267 176.393 29.0133 176.313 29.12C176.26 29.2267 176.1 29.36 175.833 29.52C174.953 30.1333 173.873 30.5867 172.593 30.88C171.313 31.1467 170.02 31.28 168.713 31.28C167.006 31.28 165.606 31.0267 164.513 30.52C163.42 30.0133 162.566 29.32 161.953 28.44C161.366 27.5333 160.953 26.4933 160.713 25.32C160.473 24.12 160.353 22.8533 160.353 21.52ZM171.953 19.36C171.953 18.56 171.846 17.8533 171.633 17.24C171.446 16.6 171.1 16.1067 170.593 15.76C170.113 15.3867 169.446 15.2 168.593 15.2C167.926 15.2 167.353 15.3333 166.873 15.6C166.42 15.84 166.046 16.1733 165.753 16.6C165.486 17 165.273 17.44 165.113 17.92C164.953 18.4 164.846 18.8667 164.793 19.32C164.793 19.6933 164.806 19.9333 164.833 20.04C164.86 20.12 164.98 20.16 165.193 20.16H171.433C171.673 20.16 171.82 20.12 171.873 20.04C171.953 19.96 171.98 19.7333 171.953 19.36ZM191.785 31C191.572 31 191.412 30.92 191.305 30.76C190.612 29.64 190.012 28.4533 189.505 27.2C188.998 25.92 188.518 24.6533 188.065 23.4C187.292 21.2667 186.692 19.36 186.265 17.68C185.838 16 185.505 14.48 185.265 13.12C185.158 12.4533 185.278 12.12 185.625 12.12H189.265C189.425 12.12 189.558 12.1733 189.665 12.28C189.772 12.36 189.838 12.4667 189.865 12.6C189.945 13.4267 190.092 14.3467 190.305 15.36C190.518 16.3467 190.758 17.4533 191.025 18.68C191.372 20.0667 191.692 21.2667 191.985 22.28C192.305 23.2667 192.612 24.12 192.905 24.84C192.958 25.0533 193.038 25.1467 193.145 25.12C193.278 25.0933 193.372 25 193.425 24.84C193.665 24.3067 193.905 23.6267 194.145 22.8C194.412 21.9467 194.692 20.9067 194.985 19.68C195.305 18.32 195.585 16.9733 195.825 15.64C196.092 14.3067 196.265 13.2133 196.345 12.36C196.372 12.2267 196.452 12.16 196.585 12.16H200.465C200.625 12.16 200.692 12.2533 200.665 12.44C200.425 14.0667 200.078 15.8 199.625 17.64C199.198 19.48 198.638 21.3733 197.945 23.32C197.545 24.52 197.078 25.7467 196.545 27C196.012 28.2533 195.398 29.52 194.705 30.8C194.625 30.96 194.505 31.04 194.345 31.04L191.785 31ZM214.906 6.92C214.906 7.64 214.759 8.18666 214.466 8.56C214.172 8.90667 213.546 9.08 212.586 9.08C211.652 9.08 211.012 8.90667 210.666 8.56C210.346 8.18666 210.186 7.64 210.186 6.92C210.186 6.30667 210.346 5.81333 210.666 5.44C211.012 5.06666 211.652 4.88 212.586 4.88C213.599 4.88 214.239 5.06666 214.506 5.44C214.772 5.81333 214.906 6.30667 214.906 6.92ZM214.786 30.56C214.786 30.8533 214.626 31 214.306 31H210.826C210.532 31 210.386 30.8533 210.386 30.56V12.56C210.386 12.2667 210.532 12.12 210.826 12.12H214.306C214.626 12.12 214.786 12.2667 214.786 12.56V30.56ZM230.785 31C230.572 31 230.412 30.92 230.305 30.76C229.612 29.64 229.012 28.4533 228.505 27.2C227.998 25.92 227.518 24.6533 227.065 23.4C226.292 21.2667 225.692 19.36 225.265 17.68C224.838 16 224.505 14.48 224.265 13.12C224.158 12.4533 224.278 12.12 224.625 12.12H228.265C228.425 12.12 228.558 12.1733 228.665 12.28C228.772 12.36 228.838 12.4667 228.865 12.6C228.945 13.4267 229.092 14.3467 229.305 15.36C229.518 16.3467 229.758 17.4533 230.025 18.68C230.372 20.0667 230.692 21.2667 230.985 22.28C231.305 23.2667 231.612 24.12 231.905 24.84C231.958 25.0533 232.038 25.1467 232.145 25.12C232.278 25.0933 232.372 25 232.425 24.84C232.665 24.3067 232.905 23.6267 233.145 22.8C233.412 21.9467 233.692 20.9067 233.985 19.68C234.305 18.32 234.585 16.9733 234.825 15.64C235.092 14.3067 235.265 13.2133 235.345 12.36C235.372 12.2267 235.452 12.16 235.585 12.16H239.465C239.625 12.16 239.692 12.2533 239.665 12.44C239.425 14.0667 239.078 15.8 238.625 17.64C238.198 19.48 237.638 21.3733 236.945 23.32C236.545 24.52 236.078 25.7467 235.545 27C235.012 28.2533 234.398 29.52 233.705 30.8C233.625 30.96 233.505 31.04 233.345 31.04L230.785 31Z" fill="#11053C"/>
<g clip-path="url(#clip1_81_489)">
<path d="M53.5834 68.6971L54.5453 67.6944C52.6516 62.1487 49.746 57.3192 46.1391 53.605L42.4119 57.4727L53.5834 68.6869V68.6971Z" fill="#11053C"/>
<path d="M40.9305 59.0091L29.8749 70.4941L41.0498 81.7126L52.1054 70.2276L40.9305 59.0091Z" fill="#11053C"/>
<path d="M14.1373 57.7183L10.4602 54.0246C6.92339 57.8104 4.09793 62.6705 2.27441 68.2367L3.15612 69.1166L14.1373 57.708V57.7183Z" fill="#11053C"/>
<path d="M15.6458 59.2212L4.66046 70.6332L15.9068 81.9234L26.8922 70.5114L15.6458 59.2212Z" fill="#11053C"/>
<path d="M25.5994 45.8185C20.5496 46.4836 15.8906 48.8677 11.9731 52.5205L15.6201 56.1835L25.5994 45.8185Z" fill="#11053C"/>
<path d="M44.5961 52.1316C40.5883 48.5402 35.8392 46.2585 30.7193 45.7367L40.909 55.9686L44.6061 52.1316H44.5961Z" fill="#11053C"/>
<path d="M28.1743 46.2046L17.1187 57.6895L28.3651 68.9797L39.4207 57.4947L28.1743 46.2046Z" fill="#11053C"/>
<path d="M41.0729 84.757L30.0875 96.169L41.2767 107.402L52.2621 95.9898L41.0729 84.757Z" fill="#11053C"/>
<path d="M14.4278 83.472L3.17613 72.176L0.671296 74.7851C0.230445 77.3738 0 80.0546 0 82.8172C0 86.1426 0.340657 89.3554 0.961856 92.425L3.42661 94.9011L14.4278 83.4823V83.472Z" fill="#11053C"/>
<path d="M17.604 109.134L28.4249 120C28.4249 120 28.475 120 28.495 120C28.7154 120 28.9359 120 29.1463 119.99L39.7868 108.939L28.6052 97.7046L17.604 109.123V109.134Z" fill="#11053C"/>
<path d="M56.2686 74.4168L53.6135 71.7462L42.5521 83.2367L53.7337 94.4713L56.1183 91.985C56.6894 89.0587 56.99 85.9891 56.99 82.8172C56.99 79.9318 56.7395 77.118 56.2586 74.4168H56.2686Z" fill="#11053C"/>
<path d="M28.392 72.0258L17.4067 83.4378L28.5816 94.6563L39.5669 83.2443L28.392 72.0258Z" fill="#11053C"/>
<path d="M15.9423 84.9685L4.94293 96.3951L16.1178 107.614L27.1172 96.1869L15.9423 84.9685Z" fill="#11053C"/>
<path d="M42.7725 108.909L45.9987 112.152C49.6057 108.479 52.5213 103.701 54.445 98.1958L53.7537 97.5L42.7725 108.909Z" fill="#11053C"/>
<path d="M12.945 113.973C16.5419 117.033 20.7 119.069 25.1686 119.744L16.1312 110.668L12.945 113.973Z" fill="#11053C"/>
<path d="M32.4426 119.642C36.8511 118.844 40.929 116.736 44.4558 113.626L41.2897 110.454L32.4426 119.642Z" fill="#11053C"/>
<path d="M3.45669 97.94L2.72528 98.6971C4.70911 104.181 7.69487 108.919 11.372 112.531L14.6283 109.154L3.45669 97.94Z" fill="#11053C"/>
<path d="M28.1944 42.9536L55.437 15.1228L40.0373 19.3588L43.5941 3.02865L32.9336 15.1228L28.1944 0L23.4553 15.1228L12.7947 3.02865L16.3416 19.3588L0.941833 15.1228L28.1944 42.9536Z" fill="#11053C"/>
</g>
</g>
<defs>
<clipPath id="clip0_81_489">
<rect width="540" height="120" fill="white"/>
</clipPath>
<clipPath id="clip1_81_489">
<rect width="57" height="120" fill="white"/>
</clipPath>
</defs>
</svg>
