<svg width="540" height="120" viewBox="0 0 540 120" fill="none" xmlns="http://www.w3.org/2000/svg">
<g clip-path="url(#clip0_96_1534)">
<path d="M124.6 69.73C124.6 74.4233 123.757 78.75 122.07 82.71C120.383 86.5967 117.853 89.75 114.48 92.17C111.18 94.5167 107.073 95.69 102.16 95.69H95.12C94.7533 95.69 94.4967 95.7633 94.35 95.91C94.2767 96.0567 94.24 96.2767 94.24 96.57V118.79C94.24 119.597 93.7633 120 92.81 120H82.91C82.1033 120 81.7 119.597 81.7 118.79V47.18C81.7 46.3733 82.1033 45.97 82.91 45.97H100.95C109.31 45.97 115.323 47.9133 118.99 51.8C122.73 55.6133 124.6 61.59 124.6 69.73ZM94.24 85.46C94.24 86.12 94.4967 86.45 95.01 86.45H100.84C104.507 86.45 107.367 84.9833 109.42 82.05C111.473 79.1167 112.5 75.0467 112.5 69.84C112.427 64.34 111.363 60.4533 109.31 58.18C107.33 55.9067 104.433 54.77 100.62 54.77H95.01C94.7167 54.77 94.4967 54.8433 94.35 54.99C94.2767 55.0633 94.24 55.32 94.24 55.76V85.46ZM148.378 118.79C148.378 119.597 147.938 120 147.058 120H137.158C136.351 120 135.948 119.597 135.948 118.79V47.18C135.948 46.3733 136.351 45.97 137.158 45.97H147.058C147.938 45.97 148.378 46.3733 148.378 47.18V118.79ZM205.243 93.71C205.39 94.0033 205.646 94.15 206.013 94.15C206.38 94.15 206.563 93.93 206.563 93.49C206.71 91.1433 206.783 88.54 206.783 85.68C206.783 82.7467 206.746 79.6667 206.673 76.44C206.673 73.2133 206.6 69.9133 206.453 66.54C206.38 63.1667 206.233 59.8667 206.013 56.64C205.793 53.34 205.5 50.2233 205.133 47.29C205.06 46.41 205.28 45.97 205.793 45.97H215.803C216.243 45.97 216.61 46.08 216.903 46.3C217.27 46.52 217.49 46.8133 217.563 47.18C218.076 49.8933 218.48 53.1933 218.773 57.08C219.066 60.8933 219.25 65.0733 219.323 69.62C219.396 74.1667 219.396 78.8233 219.323 83.59C219.323 88.2833 219.213 92.8667 218.993 97.34C218.846 101.813 218.663 105.92 218.443 109.66C218.223 113.327 217.966 116.37 217.673 118.79C217.6 119.377 217.38 119.743 217.013 119.89C216.646 119.963 216.243 120 215.803 120H209.313C208.8 120 208.286 119.487 207.773 118.46L176.973 71.82C176.9 71.5267 176.716 71.38 176.423 71.38C176.13 71.38 175.983 71.5633 175.983 71.93C175.91 75.67 175.836 79.3733 175.763 83.04C175.763 86.6333 175.763 90.1533 175.763 93.6C175.836 96.9733 175.91 100.2 175.983 103.28C176.13 106.36 176.276 109.22 176.423 111.86C176.643 114.427 176.9 116.737 177.193 118.79C177.193 119.597 176.936 120 176.423 120H166.523C166.156 120 165.753 119.963 165.313 119.89C164.946 119.743 164.726 119.377 164.653 118.79C164.36 116.297 164.103 113.18 163.883 109.44C163.663 105.7 163.48 101.593 163.333 97.12C163.186 92.6467 163.113 88.0633 163.113 83.37C163.113 78.6033 163.15 73.9833 163.223 69.51C163.37 64.9633 163.553 60.7833 163.773 56.97C164.066 53.0833 164.47 49.82 164.983 47.18C165.056 46.8133 165.276 46.52 165.643 46.3C166.01 46.08 166.376 45.97 166.743 45.97H173.013C173.526 45.97 173.93 46.2633 174.223 46.85L205.243 93.71ZM235.342 120C234.535 120 234.132 119.597 234.132 118.79V47.18C234.132 46.3733 234.535 45.97 235.342 45.97H271.422C272.155 45.97 272.595 46.0433 272.742 46.19C272.888 46.2633 272.962 46.6667 272.962 47.4V54.11C272.962 54.9167 272.852 55.3933 272.632 55.54C272.485 55.6867 272.082 55.76 271.422 55.76H247.552C247.112 55.76 246.855 55.7967 246.782 55.87C246.708 55.9433 246.672 56.1633 246.672 56.53V76.99C246.672 77.3567 246.708 77.6133 246.782 77.76C246.928 77.8333 247.148 77.87 247.442 77.87H266.472C267.278 77.87 267.755 77.98 267.902 78.2C268.048 78.3467 268.122 78.86 268.122 79.74V85.79C268.122 86.5967 268.012 87.11 267.792 87.33C267.645 87.4767 267.205 87.55 266.472 87.55H247.442C247.075 87.55 246.855 87.5867 246.782 87.66C246.708 87.7333 246.672 87.9533 246.672 88.32V109.33C246.672 109.697 246.708 109.953 246.782 110.1C246.855 110.247 247.075 110.32 247.442 110.32H271.202C272.082 110.32 272.595 110.43 272.742 110.65C272.888 110.797 272.962 111.273 272.962 112.08V118.24C272.962 119.047 272.852 119.56 272.632 119.78C272.412 119.927 271.935 120 271.202 120H235.342ZM280.128 120C279.541 120 279.175 119.78 279.028 119.34C278.955 118.9 279.028 118.057 279.248 116.81C279.688 113.51 280.421 109.513 281.448 104.82C282.475 100.053 283.685 95.03 285.078 89.75C286.471 84.47 287.975 79.19 289.588 73.91C291.201 68.63 292.851 63.7167 294.538 59.17C296.225 54.6233 297.838 50.81 299.378 47.73C299.671 47.2167 299.965 46.8133 300.258 46.52C300.625 46.1533 301.028 45.97 301.468 45.97H311.478C311.918 46.1167 312.321 46.3 312.688 46.52C313.055 46.74 313.385 47.18 313.678 47.84C315.218 50.7733 316.795 54.55 318.408 59.17C320.095 63.7167 321.745 68.6667 323.358 74.02C324.971 79.3 326.475 84.6167 327.868 89.97C329.335 95.25 330.581 100.237 331.608 104.93C332.635 109.623 333.368 113.583 333.808 116.81C334.028 118.057 334.065 118.9 333.918 119.34C333.845 119.78 333.478 120 332.818 120H323.138C322.625 120 322.258 119.89 322.038 119.67C321.891 119.377 321.671 118.643 321.378 117.47C321.085 115.637 320.681 113.51 320.168 111.09C319.728 108.67 319.288 106.433 318.848 104.38C318.775 103.867 318.665 103.573 318.518 103.5C318.371 103.353 318.041 103.28 317.528 103.28H295.418C294.905 103.28 294.575 103.353 294.428 103.5C294.355 103.573 294.245 103.867 294.098 104.38C293.658 106.433 293.181 108.67 292.668 111.09C292.228 113.51 291.861 115.637 291.568 117.47C291.348 118.643 291.128 119.377 290.908 119.67C290.761 119.89 290.431 120 289.918 120H280.128ZM298.058 93.6H314.888C315.328 93.6 315.585 93.5267 315.658 93.38C315.805 93.16 315.805 92.7567 315.658 92.17C314.485 87.6233 313.275 82.9667 312.028 78.2C310.781 73.4333 309.388 69.0333 307.848 65C307.701 64.4867 307.445 64.23 307.078 64.23H305.868C305.501 64.23 305.208 64.5233 304.988 65.11C304.255 67.31 303.411 69.95 302.458 73.03C301.505 76.0367 300.588 79.2267 299.708 82.6C298.828 85.9733 297.985 89.2367 297.178 92.39C297.105 92.7567 297.105 93.05 297.178 93.27C297.251 93.49 297.545 93.6 298.058 93.6ZM387.354 69.73C387.354 74.4233 386.511 78.75 384.824 82.71C383.137 86.5967 380.607 89.75 377.234 92.17C373.934 94.5167 369.827 95.69 364.914 95.69H357.874C357.507 95.69 357.251 95.7633 357.104 95.91C357.031 96.0567 356.994 96.2767 356.994 96.57V118.79C356.994 119.597 356.517 120 355.564 120H345.664C344.857 120 344.454 119.597 344.454 118.79V47.18C344.454 46.3733 344.857 45.97 345.664 45.97H363.704C372.064 45.97 378.077 47.9133 381.744 51.8C385.484 55.6133 387.354 61.59 387.354 69.73ZM356.994 85.46C356.994 86.12 357.251 86.45 357.764 86.45H363.594C367.261 86.45 370.121 84.9833 372.174 82.05C374.227 79.1167 375.254 75.0467 375.254 69.84C375.181 64.34 374.117 60.4533 372.064 58.18C370.084 55.9067 367.187 54.77 363.374 54.77H357.764C357.471 54.77 357.251 54.8433 357.104 54.99C357.031 55.0633 356.994 55.32 356.994 55.76V85.46ZM441.602 69.73C441.602 74.4233 440.759 78.75 439.072 82.71C437.385 86.5967 434.855 89.75 431.482 92.17C428.182 94.5167 424.075 95.69 419.162 95.69H412.122C411.755 95.69 411.499 95.7633 411.352 95.91C411.279 96.0567 411.242 96.2767 411.242 96.57V118.79C411.242 119.597 410.765 120 409.812 120H399.912C399.105 120 398.702 119.597 398.702 118.79V47.18C398.702 46.3733 399.105 45.97 399.912 45.97H417.952C426.312 45.97 432.325 47.9133 435.992 51.8C439.732 55.6133 441.602 61.59 441.602 69.73ZM411.242 85.46C411.242 86.12 411.499 86.45 412.012 86.45H417.842C421.509 86.45 424.369 84.9833 426.422 82.05C428.475 79.1167 429.502 75.0467 429.502 69.84C429.429 64.34 428.365 60.4533 426.312 58.18C424.332 55.9067 421.435 54.77 417.622 54.77H412.012C411.719 54.77 411.499 54.8433 411.352 54.99C411.279 55.0633 411.242 55.32 411.242 55.76V85.46ZM454.16 120C453.353 120 452.95 119.597 452.95 118.79V47.18C452.95 46.3733 453.353 45.97 454.16 45.97H463.84C464.5 45.97 464.903 46.08 465.05 46.3C465.27 46.52 465.38 46.9233 465.38 47.51V109.33C465.38 109.697 465.417 109.953 465.49 110.1C465.563 110.247 465.82 110.32 466.26 110.32H490.02C490.827 110.32 491.303 110.43 491.45 110.65C491.597 110.797 491.67 111.273 491.67 112.08V118.24C491.67 119.047 491.597 119.56 491.45 119.78C491.303 119.927 490.79 120 489.91 120H454.16ZM501.855 120C501.049 120 500.645 119.597 500.645 118.79V47.18C500.645 46.3733 501.049 45.97 501.855 45.97H537.935C538.669 45.97 539.109 46.0433 539.255 46.19C539.402 46.2633 539.475 46.6667 539.475 47.4V54.11C539.475 54.9167 539.365 55.3933 539.145 55.54C538.999 55.6867 538.595 55.76 537.935 55.76H514.065C513.625 55.76 513.369 55.7967 513.295 55.87C513.222 55.9433 513.185 56.1633 513.185 56.53V76.99C513.185 77.3567 513.222 77.6133 513.295 77.76C513.442 77.8333 513.662 77.87 513.955 77.87H532.985C533.792 77.87 534.269 77.98 534.415 78.2C534.562 78.3467 534.635 78.86 534.635 79.74V85.79C534.635 86.5967 534.525 87.11 534.305 87.33C534.159 87.4767 533.719 87.55 532.985 87.55H513.955C513.589 87.55 513.369 87.5867 513.295 87.66C513.222 87.7333 513.185 87.9533 513.185 88.32V109.33C513.185 109.697 513.222 109.953 513.295 110.1C513.369 110.247 513.589 110.32 513.955 110.32H537.715C538.595 110.32 539.109 110.43 539.255 110.65C539.402 110.797 539.475 111.273 539.475 112.08V118.24C539.475 119.047 539.365 119.56 539.145 119.78C538.925 119.927 538.449 120 537.715 120H501.855Z" fill="#FDFDFE"/>
<path d="M82.4 22.32C82.4 20.5333 82.64 18.9333 83.12 17.52C83.6267 16.08 84.4933 14.9467 85.72 14.12C86.9733 13.2933 88.7333 12.88 91 12.88C92.04 12.88 93.0667 12.9733 94.08 13.16C95.12 13.32 96.0267 13.5467 96.8 13.84C97.3867 14.0533 97.7467 14.3067 97.88 14.6C98.0133 14.8667 98.12 15.32 98.2 15.96C98.44 18.0667 98.56 20.4 98.56 22.96C98.5867 25.4933 98.4533 28.0267 98.16 30.56C97.8667 32.88 97.0133 34.5733 95.6 35.64C94.1867 36.7067 92.2533 37.24 89.8 37.24C88.8133 37.24 87.7467 37.0933 86.6 36.8C85.4533 36.5333 84.3733 36.04 83.36 35.32C83.2267 35.2133 83.12 35.08 83.04 34.92C82.9867 34.76 83.0133 34.6 83.12 34.44C83.2267 34.28 83.3867 34 83.6 33.6C83.84 33.2267 84.0133 32.96 84.12 32.8C84.2533 32.5067 84.3733 32.3467 84.48 32.32C84.6133 32.32 84.7867 32.4 85 32.56C85.32 32.7733 85.7467 32.9867 86.28 33.2C86.8133 33.4133 87.3733 33.6 87.96 33.76C88.5467 33.92 89.0533 34 89.48 34C90.0133 34 90.56 33.9067 91.12 33.72C91.7067 33.56 92.2267 33.2667 92.68 32.84C93.1333 32.44 93.4133 31.84 93.52 31.04C93.52 31.0133 93.52 30.9867 93.52 30.96C93.5467 30.9067 93.56 30.8667 93.56 30.84C93.5867 30.6533 93.56 30.52 93.48 30.44C93.4 30.3333 93.2267 30.3067 92.96 30.36C92.6667 30.44 92.2667 30.5067 91.76 30.56C91.28 30.6133 90.8133 30.64 90.36 30.64C88.8667 30.64 87.5067 30.3333 86.28 29.72C85.08 29.1067 84.12 28.1733 83.4 26.92C82.7067 25.6667 82.3733 24.1333 82.4 22.32ZM87 21.64C87 22.7333 87.1067 23.72 87.32 24.6C87.56 25.4533 87.9467 26.1333 88.48 26.64C89.04 27.12 89.8 27.36 90.76 27.36C91.2133 27.36 91.6533 27.3333 92.08 27.28C92.5067 27.2267 92.88 27.1333 93.2 27C93.6533 26.8133 93.8933 26.5067 93.92 26.08C93.9733 25.4933 94 24.7867 94 23.96C94 23.1333 93.9867 22.2933 93.96 21.44C93.96 20.56 93.9467 19.76 93.92 19.04C93.8933 18.2933 93.8533 17.7067 93.8 17.28C93.8 17.12 93.76 16.9333 93.68 16.72C93.6267 16.5067 93.5067 16.36 93.32 16.28C93.0533 16.1467 92.7067 16.04 92.28 15.96C91.8533 15.88 91.3733 15.84 90.84 15.84C89.88 15.84 89.12 16.0933 88.56 16.6C88 17.08 87.6 17.76 87.36 18.64C87.12 19.4933 87 20.4933 87 21.64ZM108.697 22.52C108.697 21.2667 108.817 20.0667 109.057 18.92C109.324 17.7733 109.764 16.7467 110.377 15.84C110.99 14.9067 111.83 14.1733 112.897 13.64C113.99 13.1067 115.364 12.84 117.017 12.84C118.75 12.84 120.124 13.08 121.137 13.56C122.177 14.04 122.95 14.6933 123.457 15.52C123.99 16.32 124.337 17.2133 124.497 18.2C124.684 19.16 124.777 20.12 124.777 21.08C124.777 22.1733 124.657 22.88 124.417 23.2C124.177 23.52 123.817 23.68 123.337 23.68H113.537C113.404 23.68 113.297 23.7067 113.217 23.76C113.164 23.8133 113.137 23.9467 113.137 24.16C113.137 25.0933 113.324 25.9333 113.697 26.68C114.097 27.4267 114.657 28.0133 115.377 28.44C116.124 28.8667 117.017 29.08 118.057 29.08C118.937 29.08 119.804 28.9467 120.657 28.68C121.51 28.4133 122.164 28.16 122.617 27.92C122.91 27.76 123.137 27.6667 123.297 27.64C123.457 27.5867 123.63 27.7467 123.817 28.12L124.577 29.56C124.71 29.8267 124.737 30.0133 124.657 30.12C124.604 30.2267 124.444 30.36 124.177 30.52C123.297 31.1333 122.217 31.5867 120.937 31.88C119.657 32.1467 118.364 32.28 117.057 32.28C115.35 32.28 113.95 32.0267 112.857 31.52C111.764 31.0133 110.91 30.32 110.297 29.44C109.71 28.5333 109.297 27.4933 109.057 26.32C108.817 25.12 108.697 23.8533 108.697 22.52ZM120.297 20.36C120.297 19.56 120.19 18.8533 119.977 18.24C119.79 17.6 119.444 17.1067 118.937 16.76C118.457 16.3867 117.79 16.2 116.937 16.2C116.27 16.2 115.697 16.3333 115.217 16.6C114.764 16.84 114.39 17.1733 114.097 17.6C113.83 18 113.617 18.44 113.457 18.92C113.297 19.4 113.19 19.8667 113.137 20.32C113.137 20.6933 113.15 20.9333 113.177 21.04C113.204 21.12 113.324 21.16 113.537 21.16H119.777C120.017 21.16 120.164 21.12 120.217 21.04C120.297 20.96 120.324 20.7333 120.297 20.36ZM135.609 32C135.262 32 135.089 31.8533 135.089 31.56C135.089 28.76 135.089 25.9733 135.089 23.2C135.089 20.4 135.089 17.6133 135.089 14.84C135.089 14.5733 135.169 14.3867 135.329 14.28C135.489 14.1467 135.822 14 136.329 13.84C136.649 13.7333 137.155 13.6 137.849 13.44C138.542 13.28 139.275 13.1467 140.049 13.04C140.849 12.9067 141.582 12.84 142.249 12.84C144.409 12.84 146.062 13.2533 147.209 14.08C148.355 14.9067 149.142 16 149.569 17.36C150.022 18.72 150.249 20.24 150.249 21.92C150.249 22.9867 150.222 24.08 150.169 25.2C150.142 26.32 150.089 27.4 150.009 28.44C149.955 29.48 149.889 30.3867 149.809 31.16C149.755 31.5867 149.675 31.84 149.569 31.92C149.489 31.9733 149.289 32 148.969 32H146.169C145.849 32 145.622 31.96 145.489 31.88C145.382 31.8 145.342 31.6133 145.369 31.32C145.369 31.1867 145.395 30.76 145.449 30.04C145.502 29.32 145.555 28.4667 145.609 27.48C145.662 26.4667 145.702 25.4667 145.729 24.48C145.755 23.4667 145.769 22.6133 145.769 21.92C145.769 20.5067 145.635 19.4 145.369 18.6C145.102 17.8 144.702 17.24 144.169 16.92C143.635 16.5733 142.955 16.4 142.129 16.4C141.755 16.4 141.395 16.4267 141.049 16.48C140.729 16.5333 140.435 16.6 140.169 16.68C139.955 16.7067 139.782 16.8133 139.649 17C139.542 17.16 139.489 17.44 139.489 17.84C139.489 19.0933 139.489 20.48 139.489 22C139.489 23.52 139.489 25.0933 139.489 26.72C139.489 28.32 139.489 29.9333 139.489 31.56C139.489 31.8533 139.355 32 139.089 32H135.609ZM160.353 22.52C160.353 21.2667 160.473 20.0667 160.713 18.92C160.98 17.7733 161.42 16.7467 162.033 15.84C162.646 14.9067 163.486 14.1733 164.553 13.64C165.646 13.1067 167.02 12.84 168.673 12.84C170.406 12.84 171.78 13.08 172.793 13.56C173.833 14.04 174.606 14.6933 175.113 15.52C175.646 16.32 175.993 17.2133 176.153 18.2C176.34 19.16 176.433 20.12 176.433 21.08C176.433 22.1733 176.313 22.88 176.073 23.2C175.833 23.52 175.473 23.68 174.993 23.68H165.193C165.06 23.68 164.953 23.7067 164.873 23.76C164.82 23.8133 164.793 23.9467 164.793 24.16C164.793 25.0933 164.98 25.9333 165.353 26.68C165.753 27.4267 166.313 28.0133 167.033 28.44C167.78 28.8667 168.673 29.08 169.713 29.08C170.593 29.08 171.46 28.9467 172.313 28.68C173.166 28.4133 173.82 28.16 174.273 27.92C174.566 27.76 174.793 27.6667 174.953 27.64C175.113 27.5867 175.286 27.7467 175.473 28.12L176.233 29.56C176.366 29.8267 176.393 30.0133 176.313 30.12C176.26 30.2267 176.1 30.36 175.833 30.52C174.953 31.1333 173.873 31.5867 172.593 31.88C171.313 32.1467 170.02 32.28 168.713 32.28C167.006 32.28 165.606 32.0267 164.513 31.52C163.42 31.0133 162.566 30.32 161.953 29.44C161.366 28.5333 160.953 27.4933 160.713 26.32C160.473 25.12 160.353 23.8533 160.353 22.52ZM171.953 20.36C171.953 19.56 171.846 18.8533 171.633 18.24C171.446 17.6 171.1 17.1067 170.593 16.76C170.113 16.3867 169.446 16.2 168.593 16.2C167.926 16.2 167.353 16.3333 166.873 16.6C166.42 16.84 166.046 17.1733 165.753 17.6C165.486 18 165.273 18.44 165.113 18.92C164.953 19.4 164.846 19.8667 164.793 20.32C164.793 20.6933 164.806 20.9333 164.833 21.04C164.86 21.12 164.98 21.16 165.193 21.16H171.433C171.673 21.16 171.82 21.12 171.873 21.04C171.953 20.96 171.98 20.7333 171.953 20.36ZM191.785 32C191.572 32 191.412 31.92 191.305 31.76C190.612 30.64 190.012 29.4533 189.505 28.2C188.998 26.92 188.518 25.6533 188.065 24.4C187.292 22.2667 186.692 20.36 186.265 18.68C185.838 17 185.505 15.48 185.265 14.12C185.158 13.4533 185.278 13.12 185.625 13.12H189.265C189.425 13.12 189.558 13.1733 189.665 13.28C189.772 13.36 189.838 13.4667 189.865 13.6C189.945 14.4267 190.092 15.3467 190.305 16.36C190.518 17.3467 190.758 18.4533 191.025 19.68C191.372 21.0667 191.692 22.2667 191.985 23.28C192.305 24.2667 192.612 25.12 192.905 25.84C192.958 26.0533 193.038 26.1467 193.145 26.12C193.278 26.0933 193.372 26 193.425 25.84C193.665 25.3067 193.905 24.6267 194.145 23.8C194.412 22.9467 194.692 21.9067 194.985 20.68C195.305 19.32 195.585 17.9733 195.825 16.64C196.092 15.3067 196.265 14.2133 196.345 13.36C196.372 13.2267 196.452 13.16 196.585 13.16H200.465C200.625 13.16 200.692 13.2533 200.665 13.44C200.425 15.0667 200.078 16.8 199.625 18.64C199.198 20.48 198.638 22.3733 197.945 24.32C197.545 25.52 197.078 26.7467 196.545 28C196.012 29.2533 195.398 30.52 194.705 31.8C194.625 31.96 194.505 32.04 194.345 32.04L191.785 32ZM214.906 7.92C214.906 8.64 214.759 9.18666 214.466 9.56C214.172 9.90667 213.546 10.08 212.586 10.08C211.652 10.08 211.012 9.90667 210.666 9.56C210.346 9.18666 210.186 8.64 210.186 7.92C210.186 7.30667 210.346 6.81333 210.666 6.44C211.012 6.06666 211.652 5.88 212.586 5.88C213.599 5.88 214.239 6.06666 214.506 6.44C214.772 6.81333 214.906 7.30667 214.906 7.92ZM214.786 31.56C214.786 31.8533 214.626 32 214.306 32H210.826C210.532 32 210.386 31.8533 210.386 31.56V13.56C210.386 13.2667 210.532 13.12 210.826 13.12H214.306C214.626 13.12 214.786 13.2667 214.786 13.56V31.56ZM230.785 32C230.572 32 230.412 31.92 230.305 31.76C229.612 30.64 229.012 29.4533 228.505 28.2C227.998 26.92 227.518 25.6533 227.065 24.4C226.292 22.2667 225.692 20.36 225.265 18.68C224.838 17 224.505 15.48 224.265 14.12C224.158 13.4533 224.278 13.12 224.625 13.12H228.265C228.425 13.12 228.558 13.1733 228.665 13.28C228.772 13.36 228.838 13.4667 228.865 13.6C228.945 14.4267 229.092 15.3467 229.305 16.36C229.518 17.3467 229.758 18.4533 230.025 19.68C230.372 21.0667 230.692 22.2667 230.985 23.28C231.305 24.2667 231.612 25.12 231.905 25.84C231.958 26.0533 232.038 26.1467 232.145 26.12C232.278 26.0933 232.372 26 232.425 25.84C232.665 25.3067 232.905 24.6267 233.145 23.8C233.412 22.9467 233.692 21.9067 233.985 20.68C234.305 19.32 234.585 17.9733 234.825 16.64C235.092 15.3067 235.265 14.2133 235.345 13.36C235.372 13.2267 235.452 13.16 235.585 13.16H239.465C239.625 13.16 239.692 13.2533 239.665 13.44C239.425 15.0667 239.078 16.8 238.625 18.64C238.198 20.48 237.638 22.3733 236.945 24.32C236.545 25.52 236.078 26.7467 235.545 28C235.012 29.2533 234.398 30.52 233.705 31.8C233.625 31.96 233.505 32.04 233.345 32.04L230.785 32Z" fill="#FDFDFE"/>
<g clip-path="url(#clip1_96_1534)">
<path d="M53.5834 68.6971L54.5453 67.6944C52.6516 62.1487 49.746 57.3192 46.139 53.605L42.4118 57.4727L53.5834 68.6869V68.6971Z" fill="#FDFDFE"/>
<path d="M40.9306 59.0091L29.875 70.4941L41.0499 81.7126L52.1055 70.2276L40.9306 59.0091Z" fill="#FDFDFE"/>
<path d="M14.1373 57.7183L10.4602 54.0246C6.92336 57.8104 4.09791 62.6705 2.27439 68.2367L3.15609 69.1166L14.1373 57.708V57.7183Z" fill="#FDFDFE"/>
<path d="M15.6458 59.2212L4.66044 70.6332L15.9068 81.9234L26.8921 70.5114L15.6458 59.2212Z" fill="#FDFDFE"/>
<path d="M25.5994 45.8185C20.5497 46.4836 15.8907 48.8677 11.9731 52.5205L15.6201 56.1835L25.5994 45.8185Z" fill="#FDFDFE"/>
<path d="M44.5961 52.1316C40.5883 48.5402 35.8392 46.2585 30.7193 45.7367L40.9089 55.9686L44.6061 52.1316H44.5961Z" fill="#FDFDFE"/>
<path d="M28.1743 46.2046L17.1187 57.6895L28.3651 68.9797L39.4207 57.4947L28.1743 46.2046Z" fill="#FDFDFE"/>
<path d="M41.0729 84.757L30.0875 96.169L41.2767 107.402L52.2621 95.9898L41.0729 84.757Z" fill="#FDFDFE"/>
<path d="M14.4278 83.472L3.17613 72.176L0.671296 74.7851C0.230445 77.3738 0 80.0546 0 82.8172C0 86.1426 0.340657 89.3554 0.961856 92.425L3.42661 94.9011L14.4278 83.4823V83.472Z" fill="#FDFDFE"/>
<path d="M17.604 109.134L28.4249 120C28.4249 120 28.475 120 28.495 120C28.7154 120 28.9358 120 29.1462 119.99L39.7868 108.939L28.6052 97.7046L17.604 109.123V109.134Z" fill="#FDFDFE"/>
<path d="M56.2686 74.4168L53.6135 71.7462L42.5521 83.2367L53.7337 94.4713L56.1183 91.985C56.6894 89.0587 56.99 85.9891 56.99 82.8172C56.99 79.9318 56.7395 77.118 56.2586 74.4168H56.2686Z" fill="#FDFDFE"/>
<path d="M28.392 72.0258L17.4067 83.4378L28.5815 94.6563L39.5669 83.2443L28.392 72.0258Z" fill="#FDFDFE"/>
<path d="M15.9423 84.9685L4.94293 96.3951L16.1178 107.614L27.1172 96.1869L15.9423 84.9685Z" fill="#FDFDFE"/>
<path d="M42.7725 108.909L45.9988 112.152C49.6057 108.479 52.5214 103.701 54.4451 98.1958L53.7537 97.5L42.7725 108.909Z" fill="#FDFDFE"/>
<path d="M12.945 113.973C16.5419 117.033 20.6999 119.069 25.1686 119.744L16.1311 110.668L12.945 113.973Z" fill="#FDFDFE"/>
<path d="M32.4426 119.642C36.8511 118.844 40.929 116.736 44.4558 113.626L41.2897 110.454L32.4426 119.642Z" fill="#FDFDFE"/>
<path d="M3.45667 97.94L2.72526 98.6971C4.70909 104.181 7.69485 108.919 11.3719 112.531L14.6282 109.154L3.45667 97.94Z" fill="#FDFDFE"/>
<path d="M28.1944 42.9536L55.437 15.1228L40.0373 19.3588L43.5941 3.02865L32.9336 15.1228L28.1944 0L23.4553 15.1228L12.7947 3.02865L16.3415 19.3588L0.941818 15.1228L28.1944 42.9536Z" fill="#FDFDFE"/>
</g>
</g>
<defs>
<clipPath id="clip0_96_1534">
<rect width="540" height="120" fill="white"/>
</clipPath>
<clipPath id="clip1_96_1534">
<rect width="57" height="120" fill="white"/>
</clipPath>
</defs>
</svg>
